<svg version="1" xmlns="http://www.w3.org/2000/svg" width="400" height="400" viewBox="0 0 300.000000 300.000000"><path d="M176.3 43.2c-6.6 7.9-13.3 15.5-14.7 17-4 4.4-6.7 3.7-14.9-4l-7.2-6.7-.3 38.1-.2 38.2-3.3-3.1c-7.1-6.6-18.9-9.3-28.8-6.3-17.8 5.1-27 24.3-20.1 42.1 4 10.5 21 28.6 40 42.5 9.6 7 11.9 8.1 41.8 20.2 17.5 7 31.9 12.8 32.2 12.8.2 0 .1-4-.2-8.8-.5-6-.3-9.7.5-11.4.9-2.1 7-5.3 34.2-17.6 18.3-8.3 33.3-15.5 33.4-15.9.1-.4-2.3-2.8-5.3-5.2-3.1-2.4-5.8-4.9-6.1-5.7-.3-.8 3.8-9.1 9.1-18.4 5.4-9.4 9.4-17.4 9.1-18-.3-.5-4.3-1-8.8-1.1-15.2-.1-25.7-1.3-26.7-2.9-.5-.8-1-5.2-1-9.8 0-4.5-.2-8.2-.4-8.2s-8.4 5.2-18.1 11.5c-9.8 6.3-18.3 11.5-19 11.5-2.1 0-3.8-2.8-3.1-5.4.3-1.3 6.4-14.7 13.6-29.7 7.1-15 12.9-27.4 12.7-27.6-.2-.1-4.4.6-9.3 1.7-10.8 2.4-12.8 2.4-14.7.5-.9-.8-3.6-10.4-6.2-21.2-2.5-10.9-4.9-20.6-5.3-21.6-.6-1.3-3.2 1.3-12.9 12.5zm.2 76.3c16.7 8.1 21.3 28.8 10.3 46.1-6.2 9.9-23.7 25.8-41.9 38.2l-4.6 3.1-.7-6.7c-.3-3.7-.6-21.6-.6-39.8v-33.2l3.7-3.2c9.3-8.2 22.7-10 33.8-4.5zM95.8 59.5c.4 5 .2 5.6-2 6.4-1.2.5-3.9 1.5-5.8 2.3l-3.5 1.5 5.2 1.7c5 1.7 5.1 1.8 5.8 6.4 1 7.5 1.8 8 5.1 2.8 1.6-2.5 3.4-4.6 4-4.6.6 0 3.1.7 5.4 1.5 2.4.8 4.5 1.3 4.8 1.1.2-.3-.9-2.7-2.5-5.5l-2.8-5.1 2.3-4.1c1.3-2.2 2.2-4.3 1.9-4.5-.2-.2-2.5.4-5.2 1.3l-4.9 1.6-3.6-4.1c-1.9-2.3-3.8-4.2-4-4.2-.3 0-.3 2.5-.2 5.5zM54 87.6v6l-4.7 1.5c-2.7.8-4.7 1.9-4.5 2.4.1.6 2 1.7 4.2 2.5 4.2 1.5 4.3 1.6 5.5 9.5l.7 4 1.9-2.3c1-1.3 2.7-3.5 3.7-4.9l1.9-2.6 4.8 1.7c2.7.9 5 1.4 5.3 1.2.2-.3-.8-2.7-2.3-5.4l-2.7-5 2.8-4.8c2-3.5 2.4-4.6 1.2-4.2-.9.4-3.4 1.2-5.7 1.9L62 90.3l-3.9-4.4-4-4.4-.1 6.1zM34 135.6c0 5.1 0 5.1-4 6.3-4.4 1.3-4.5 2.5-.3 3.6 3.3.8 4.3 2.1 4.3 5.5.1 5 1.6 5.6 4.1 1.6 1.3-2 2.9-3.4 3.6-3.2.6.3 2.8.8 4.8 1.2l3.7.7-2.5-4.5-2.6-4.4 2-3.3c1.1-1.8 1.8-3.5 1.6-3.8-.3-.2-2.2.3-4.3 1.2l-3.8 1.6-3.3-3.8-3.2-3.8-.1 5.1zM41 186.1c0 2.4-.6 3.2-3 4-1.6.6-3 1.4-3 1.8 0 .4 1.4 1.2 3 1.8 2.4.9 3 1.7 3 4.2 0 3.8 1.2 4 3 .6.9-1.7 1.9-2.4 3.2-2 1 .3 2.8.8 3.9 1.1 1.2.3 2 .2 1.7-.2-.2-.5-1-2.2-1.8-3.7-1.1-2.3-1.1-3.3-.2-4.8 1.8-2.8 1.5-3.1-2.2-2.3-2.8.5-3.7.2-4.8-1.5-1.8-2.9-2.8-2.6-2.8 1zM68 228.9c0 2.3-.6 3.1-2.7 3.9l-2.8 1 2.8 1.1c1.9.7 2.7 1.8 2.7 3.6 0 3 1.5 3.3 3.2.6.9-1.5 1.9-1.8 4-1.4 2.8.5 2.8.5 1.7-2.1-.9-2-.9-3.2-.1-5.1 1.3-2.8 1-3-2-1.4-1.8 1-2.5.8-3.9-1-2.3-2.8-2.9-2.7-2.9.8zM114 250.1c0 1.2-.8 2.3-2 2.6-1.1.3-2 .9-2 1.3 0 .5.9 1.2 2 1.5 1.3.4 2 1.5 2 3.3l.1 2.7 1.8-2.2c1.3-1.6 2.5-2 4.1-1.6 2 .5 2.2.3 1.5-1.3-.9-2.4-.9-3.4 0-5.8.7-1.7.6-1.7-1.5-.6-2 1.1-2.5 1-3.5-.4-1.6-2.2-2.5-2-2.5.5z"/></svg>