<?xml version="1.0" encoding="utf-8"?>
<!-- Generator: Adobe Illustrator 19.1.0, SVG Export Plug-In . SVG Version: 6.00 Build 0)  -->
<svg version="1.1" id="Layer_1" xmlns="http://www.w3.org/2000/svg" xmlns:xlink="http://www.w3.org/1999/xlink" x="0px" y="0px"
	 viewBox="0 0 50 50" enable-background="new 0 0 50 50" xml:space="preserve">
<g>
	<g>
		<g>
			<path fill="#FFFFFF" d="M25,12.8c6.7,0,12.2,5.4,12.2,12.2c0,6.7-5.4,12.2-12.2,12.2c-6.7,0-12.2-5.4-12.2-12.2
				S18.3,12.8,25,12.8 M25,8.1C15.7,8.1,8.1,15.7,8.1,25c0,9.3,7.6,16.9,16.9,16.9c9.3,0,16.9-7.6,16.9-16.9
				C41.9,15.7,34.3,8.1,25,8.1L25,8.1z"/>
			<path fill="#FFFFFF" d="M45.5,48.1c-0.6,0-1.3-0.2-1.8-0.7L34,37.6c-1-1-1-2.6,0-3.6c1-1,2.6-1,3.6,0l9.7,9.7c1,1,1,2.6,0,3.6
				C46.8,47.8,46.2,48.1,45.5,48.1z"/>
		</g>
	</g>
	<rect x="0.3" y="0.3" fill="none" width="49.4" height="49.4"/>
</g>
</svg>
