<?xml version="1.0" encoding="utf-8"?>
<!-- Generator: Adobe Illustrator 21.1.0, SVG Export Plug-In . SVG Version: 6.00 Build 0)  -->
<svg version="1.1" id="Layer_1" xmlns="http://www.w3.org/2000/svg" xmlns:xlink="http://www.w3.org/1999/xlink" x="0px" y="0px"
	 viewBox="0 0 170 60" style="enable-background:new 0 0 170 60;" xml:space="preserve">
<style type="text/css">
	.st0{fill:#005076;}
	.st1{clip-path:url(#SVGID_2_);fill:url(#SVGID_3_);}
	.st2{clip-path:url(#SVGID_5_);fill:url(#SVGID_6_);}
</style>
<g>
	<g>
		<path class="st0" d="M78.2,37c-1.1,0.8-2.5,1.3-3.9,1.3c-2.9,0-4.7-1.8-4.7-5c0-3.1,1.8-5.2,4.7-5.2c2.7,0,4.2,1.6,4.2,4.7
			c0,0.2,0,1,0,1.2h-6.3c0.1,1.3,0.8,2.2,2.4,2.2c1,0,1.8-0.3,2.8-0.8L78.2,37z M76.1,32.3c0-1.2-0.4-2.3-1.8-2.3
			c-1.6,0-2.1,1.5-2.1,2.3H76.1z"/>
		<path class="st0" d="M86.3,38l-0.2-1.3c-0.7,0.8-1.7,1.5-3.1,1.5c-2.3,0-3.1-1.3-3.1-3.4v-6.6h2.4v6c0,1.2,0.3,1.9,1.5,1.9
			c0.9,0,1.5-0.5,2-1v-6.8h2.4V38H86.3z"/>
		<path class="st0" d="M101,36.1c-1.6,1.5-3.2,2.2-5.2,2.2c-4,0-5.9-2.9-5.9-6.9c0-3.9,2-6.8,6-6.8c2.8,0,4.9,1.5,5,4.7h-2.6
			c-0.1-1.2-0.7-2.4-2.5-2.4c-2,0-3.3,1.7-3.3,4.5c0,3.1,1.3,4.6,3.4,4.6c1.6,0,2.6-0.7,3.6-1.5L101,36.1z"/>
		<path class="st0" d="M110.2,38h-2l-0.3-1.3c-0.7,1-1.7,1.5-3.1,1.5c-1.7,0-3-1-3-2.9c0-1.5,1.1-3.1,4.4-3.1c0.6,0,0.9,0,1.4,0.1
			v-0.7c0-1.2-0.6-1.7-1.7-1.7c-1.2,0-1.9,0.4-2.9,0.9l-0.8-1.5c1-0.8,2.5-1.4,4-1.4c2.4,0,3.8,1,3.8,3.6V38z M107.7,34.1
			c-0.3-0.1-0.7-0.1-1.2-0.1c-1.3,0-2.2,0.4-2.2,1.4c0,0.7,0.5,1.1,1.3,1.1c1.3,0,2.1-1.2,2.1-2.2V34.1z"/>
		<path class="st0" d="M114.1,28.3l0.2,1.3c0.7-0.8,1.8-1.5,3.1-1.5c2,0,3.1,1.3,3.1,3.4V38h-2.4v-5.8c0-1.5-0.5-2.1-1.5-2.1
			c-1,0-1.7,0.7-2,1.1V38h-2.4v-9.7H114.1z"/>
		<path class="st0" d="M122.9,34.5c1.2,1,2.6,1.7,3.9,1.7c1.2,0,2-0.6,2-1.7c0-1-0.5-1.5-2.8-2.2c-2.8-0.8-3.9-1.8-3.9-3.8
			c0-2.6,2-3.8,4.6-3.8c1.7,0,3.3,0.6,4.5,1.9l-1.2,1.5c-1-0.9-2.1-1.3-3.2-1.3c-1.2,0-2,0.5-2,1.5c0,1.1,0.9,1.5,3.1,2.2
			c2.5,0.8,3.6,1.8,3.6,3.8c0,2.6-1.9,4.1-4.7,4.1c-2.1,0-3.8-0.8-5.1-2.2L122.9,34.5z"/>
		<polygon class="st0" points="133.1,24.8 135.7,24.8 135.7,30.2 141.1,30.2 141.1,24.8 143.7,24.8 143.7,38 141.1,38 141.1,32.5 
			135.7,32.5 135.7,38 133.1,38 		"/>
		<path class="st0" d="M153.5,38h-2l-0.3-1.3c-0.7,1-1.7,1.5-3.1,1.5c-1.7,0-3-1-3-2.9c0-1.5,1.1-3.1,4.4-3.1c0.6,0,0.9,0,1.4,0.1
			v-0.7c0-1.2-0.6-1.7-1.7-1.7c-1.2,0-1.9,0.4-2.9,0.9l-0.8-1.5c1-0.8,2.5-1.4,4-1.4c2.4,0,3.8,1,3.8,3.6V38z M151.1,34.1
			c-0.3-0.1-0.7-0.1-1.2-0.1c-1.3,0-2.2,0.4-2.2,1.4c0,0.7,0.5,1.1,1.3,1.1c1.3,0,2.1-1.2,2.1-2.2V34.1z"/>
		<path class="st0" d="M157.6,29.7c0.5-0.9,1.3-1.6,2.2-1.6c0.3,0,0.7,0.1,1,0.2l-0.2,2.2c-0.3-0.1-0.6-0.1-0.9-0.1
			c-0.7,0-1.4,0.7-1.7,1.2V38h-2.4v-9.7h1.9L157.6,29.7z"/>
		<path class="st0" d="M169.7,37c-1.1,0.8-2.5,1.3-3.9,1.3c-2.9,0-4.7-1.8-4.7-5c0-3.1,1.8-5.2,4.7-5.2c2.7,0,4.2,1.6,4.2,4.7
			c0,0.2,0,1,0,1.2h-6.3c0.1,1.3,0.8,2.2,2.4,2.2c1,0,1.8-0.3,2.9-0.8L169.7,37z M167.7,32.3c0-1.2-0.4-2.3-1.8-2.3
			c-1.6,0-2.1,1.5-2.1,2.3H167.7z"/>
		<polygon class="st0" points="16.4,8.6 18.1,10.7 20.6,9.8 19.4,11.8 20.8,14.3 18.2,13.5 16.7,15.7 16.2,12.9 14,12.2 16.5,11.3 
					"/>
		<polygon class="st0" points="6.7,15.2 8.4,17.3 10.9,16.4 9.6,18.4 11,20.9 8.5,20.1 6.9,22.3 6.5,19.6 4.2,18.8 6.7,17.9 		"/>
		<polygon class="st0" points="20.7,54 21.4,54.9 22.4,54.5 21.9,55.3 22.5,56.3 21.4,56 20.8,56.9 20.6,55.8 19.7,55.5 20.7,55.1 
					"/>
		<polygon class="st0" points="2,26.7 3.3,28.4 5.3,27.7 4.3,29.3 5.5,31.3 3.4,30.7 2.2,32.4 1.8,30.2 0,29.6 2,28.9 		"/>
		<polygon class="st0" points="10,48.9 10.8,50 12,49.5 11.4,50.5 12.1,51.7 10.9,51.3 10.1,52.4 9.9,51.1 8.8,50.7 10,50.3 		"/>
		<polygon class="st0" points="3.6,38.8 4.6,40 6.1,39.5 5.3,40.7 6.2,42.2 4.6,41.7 3.7,43 3.5,41.4 2.1,40.9 3.6,40.4 		"/>
	</g>
	<g>
		<defs>
			<path id="SVGID_1_" d="M31.7,10.4c-0.8,0.8-1.7,0.5-2.5-0.3l-2.6-2.4l0,17.8c1.3-1.5,3.5-2.5,5.7-2.5c1.3,0,2.4,0.4,3.4,0.9
				c2.2,1.3,3.6,3.6,3.6,6.3c0,0.8-0.1,1.5-0.4,2.2c-1.2,5.3-11.6,11.8-12.4,12.3v0.1c3.1,1.3,11.1,4.5,14.4,5.8l-0.2-3.9
				c0-0.7,0.4-1.3,1-1.6l15.2-6.9l-2.3-1.9c-1-0.7-0.5-1.3,0.3-2.7l3.7-6.5l-7.7-0.4c-0.7-0.1-1.1-0.7-1.1-1.1l-0.1-3.5l-7.5,4.9
				c-1.1,0.8-2.8,0.4-1.6-1.9l5.9-12.4l-3.8,0.8c-1.1,0.3-2,0.1-2.3-0.9l-2.3-9.7L31.7,10.4z"/>
		</defs>
		<clipPath id="SVGID_2_">
			<use xlink:href="#SVGID_1_"  style="overflow:visible;"/>
		</clipPath>
		
			<linearGradient id="SVGID_3_" gradientUnits="userSpaceOnUse" x1="-640.3853" y1="1165.4658" x2="-639.7876" y2="1165.4658" gradientTransform="matrix(44.9051 -44.9051 -44.9051 -44.9051 81117.5938 23622.7539)">
			<stop  offset="0" style="stop-color:#B61F34"/>
			<stop  offset="0.2335" style="stop-color:#B61F34"/>
			<stop  offset="0.7442" style="stop-color:#E3032E"/>
			<stop  offset="1" style="stop-color:#E3032E"/>
		</linearGradient>
		<polygon class="st1" points="2.8,26.9 42.8,-13 82.7,26.9 42.8,66.9 		"/>
	</g>
	<g>
		<defs>
			<path id="SVGID_4_" d="M17.6,23.8c-2.2,1.2-3.7,3.5-3.8,6.2c0,0.8,0.1,1.5,0.3,2.2c1.2,5.5,12.4,12.7,12.4,12.7l-0.1-19.3
				C25.2,24,23.2,23,21,23c0,0-0.1,0-0.1,0C19.7,23,18.6,23.3,17.6,23.8"/>
		</defs>
		<clipPath id="SVGID_5_">
			<use xlink:href="#SVGID_4_"  style="overflow:visible;"/>
		</clipPath>
		
			<linearGradient id="SVGID_6_" gradientUnits="userSpaceOnUse" x1="-650.2776" y1="1138.2308" x2="-649.6799" y2="1138.2308" gradientTransform="matrix(17.5771 -17.5771 -17.5771 -17.5771 31453.8145 8613.915)">
			<stop  offset="0" style="stop-color:#005076"/>
			<stop  offset="1" style="stop-color:#00738B"/>
		</linearGradient>
		<polygon class="st2" points="2.8,33.9 20.2,16.6 37.5,33.9 20.2,51.3 		"/>
	</g>
</g>
</svg>
