<?xml version="1.0" encoding="utf-8"?>
<!-- Generator: Adobe Illustrator 16.0.0, SVG Export Plug-In . SVG Version: 6.00 Build 0)  -->
<!DOCTYPE svg PUBLIC "-//W3C//DTD SVG 1.1//EN" "http://www.w3.org/Graphics/SVG/1.1/DTD/svg11.dtd">
<svg version="1.1" id="Layer_1" xmlns="http://www.w3.org/2000/svg" xmlns:xlink="http://www.w3.org/1999/xlink" x="0px" y="0px"
	 width="1440px" height="600px" viewBox="0 0 1440 600" enable-background="new 0 0 1440 600" xml:space="preserve">
<g>
	<g>
		<path fill="#005076" d="M72.848,359.294c-9.318,6.776-21.177,11.012-33.036,11.012C15.247,370.306,0,355.059,0,327.953
			c0-26.259,15.247-44.047,39.812-44.047c22.871,0,35.577,13.553,35.577,39.812c0,1.694,0,8.471,0,10.165H22.023
			c0.848,11.012,6.776,18.635,20.33,18.635c8.47,0,15.247-2.541,23.717-6.776L72.848,359.294z M55.059,319.482
			c0-10.165-3.388-19.482-15.247-19.482c-13.553,0-17.788,12.706-17.788,19.482H55.059z"/>
		<path fill="#005076" d="M141.459,367.765l-1.694-11.012c-5.929,6.776-14.399,12.706-26.259,12.706
			c-19.482,0-26.259-11.012-26.259-28.8v-55.906h20.33v50.823c0,10.165,2.541,16.095,12.705,16.095
			c7.624,0,12.706-4.235,16.941-8.471v-57.6h20.329v82.165H141.459z"/>
		<path fill="#005076" d="M265.977,351.671c-13.553,12.705-27.105,18.635-44.047,18.635c-33.883,0-49.977-24.564-49.977-58.447
			c0-33.035,16.941-57.6,50.823-57.6c23.718,0,41.506,12.706,42.354,39.812h-22.023c-0.848-10.165-5.93-20.329-21.177-20.329
			c-16.941,0-27.953,14.4-27.953,38.117c0,26.259,11.012,38.965,28.8,38.965c13.554,0,22.023-5.929,30.494-12.706L265.977,351.671z"
			/>
		<path fill="#005076" d="M343.906,367.765h-16.941l-2.541-11.012c-5.93,8.471-14.4,12.706-26.259,12.706
			c-14.4,0-25.412-8.471-25.412-24.564c0-12.706,9.317-26.259,37.271-26.259c5.082,0,7.624,0,11.859,0.847v-5.93
			c0-10.164-5.083-14.399-14.4-14.399c-10.164,0-16.094,3.388-24.564,7.623l-6.776-12.706c8.471-6.776,21.177-11.858,33.882-11.858
			c20.33,0,32.188,8.47,32.188,30.494v55.059H343.906z M322.729,334.729c-2.541-0.847-5.93-0.847-10.165-0.847
			c-11.012,0-18.635,3.388-18.635,11.858c0,5.93,4.235,9.317,11.012,9.317c11.012,0,17.788-10.164,17.788-18.635V334.729
			L322.729,334.729z"/>
		<path fill="#005076" d="M376.941,285.6l1.694,11.012c5.929-6.776,15.247-12.706,26.259-12.706c16.941,0,26.259,11.012,26.259,28.8
			v55.059h-20.329v-49.129c0-12.706-4.236-17.789-12.706-17.789c-8.471,0-14.4,5.93-16.941,9.318v57.6h-20.329V285.6H376.941z"/>
		<path fill="#005076" d="M451.482,338.117c10.165,8.471,22.023,14.4,33.035,14.4c10.165,0,16.941-5.082,16.941-14.4
			c0-8.47-4.235-12.705-23.718-18.635c-23.718-6.776-33.035-15.247-33.035-32.188c0-22.023,16.941-32.188,38.965-32.188
			c14.399,0,27.953,5.083,38.117,16.094l-10.164,12.706c-8.471-7.624-17.788-11.012-27.106-11.012
			c-10.164,0-16.941,4.235-16.941,12.706c0,9.317,7.624,12.706,26.26,18.635c21.176,6.776,30.494,15.247,30.494,32.188
			c0,22.023-16.095,34.729-39.812,34.729c-17.788,0-32.188-6.776-43.199-18.636L451.482,338.117z"/>
		<polygon fill="#005076" points="537.883,255.953 559.906,255.953 559.906,301.694 605.647,301.694 605.647,255.953 
			627.671,255.953 627.671,367.765 605.647,367.765 605.647,321.177 559.906,321.177 559.906,367.765 537.883,367.765 		"/>
		<path fill="#005076" d="M710.683,367.765h-16.941l-2.541-11.012c-5.93,8.471-14.399,12.706-26.259,12.706
			c-14.4,0-25.412-8.471-25.412-24.564c0-12.706,9.318-26.259,37.271-26.259c5.083,0,7.624,0,11.859,0.847v-5.93
			c0-10.164-5.083-14.399-14.4-14.399c-10.165,0-16.094,3.388-24.564,7.623l-6.776-12.706c8.471-6.776,21.176-11.858,33.882-11.858
			c20.329,0,32.188,8.47,32.188,30.494v55.059H710.683z M690.354,334.729c-2.541-0.847-5.93-0.847-10.165-0.847
			c-11.012,0-18.636,3.388-18.636,11.858c0,5.93,4.236,9.317,11.012,9.317c11.013,0,17.789-10.164,17.789-18.635V334.729z"/>
		<path fill="#005076" d="M745.412,297.459c4.235-7.624,11.012-13.553,18.635-13.553c2.542,0,5.93,0.847,8.471,1.694l-1.693,18.635
			c-2.541-0.847-5.083-0.847-7.624-0.847c-5.929,0-11.858,5.929-14.399,10.164v54.212h-20.33V285.6h16.094L745.412,297.459z"/>
		<path fill="#005076" d="M847.906,359.294c-9.318,6.776-21.177,11.012-33.035,11.012c-24.564,0-39.812-15.247-39.812-42.353
			c0-26.259,15.248-44.047,39.812-44.047c22.87,0,35.576,13.553,35.576,39.812c0,1.694,0,8.471,0,10.165h-53.365
			c0.848,11.012,6.777,18.635,20.33,18.635c8.471,0,15.247-2.541,24.564-6.776L847.906,359.294z M830.965,319.482
			c0-10.165-3.389-19.482-15.247-19.482c-13.553,0-17.788,12.706-17.788,19.482H830.965z"/>
	</g>
</g>
</svg>
