<?xml version="1.0" encoding="utf-8"?>
<!-- Generator: Adobe Illustrator 16.0.0, SVG Export Plug-In . SVG Version: 6.00 Build 0)  -->
<!DOCTYPE svg PUBLIC "-//W3C//DTD SVG 1.1//EN" "http://www.w3.org/Graphics/SVG/1.1/DTD/svg11.dtd">
<svg version="1.1" id="Layer_1" xmlns="http://www.w3.org/2000/svg" xmlns:xlink="http://www.w3.org/1999/xlink" x="0px" y="0px"
	 width="254px" height="161px" viewBox="0 0 254 161" enable-background="new 0 0 254 161" xml:space="preserve">
<g>
	
		<radialGradient id="SVGID_1_" cx="-471" cy="513.5" r="106.3232" gradientTransform="matrix(1 0 0 1 598 -433)" gradientUnits="userSpaceOnUse">
		<stop  offset="0" style="stop-color:#FFFFFF"/>
		<stop  offset="1" style="stop-color:#FDFDFD"/>
	</radialGradient>
	<rect fill="url(#SVGID_1_)" width="254" height="161"/>
	<path opacity="0.2" fill="#5B666E" enable-background="new    " d="M196.204,77.229c-2.481-2.631-7.446-4.973-7.446-10.483
		c-1.674,0-3.783,0-4.277-1.82c-0.521-1.938-0.818-4.574-2.361-6.215c-2.229-2.377-7.826-3.59-8.88-6.914
		c-1.054-3.465-2.038-5.254-3.212-8.979c-0.691-2.261-0.691-6.65-2.246-7.771c-0.516-0.26-2.975-1.09-4.276-1.514
		c-1.494-1.129-0.808-3.592-1.302-5.521c-0.818-2.651-2.824-5.145-3.264-8.871c-2.168,1.259-0.938,3.029-3.938,4.707v12.457
		c0,3.172-1.152,11.349-5.168,11.349c-2.434,0-2.941-3.066-4.74-3.765c-3.281-1.379-5.121-2.071-8.666-3.44
		c-0.55-0.129-0.507-2.215-1.251-2.767c-0.795-0.561-2.598-0.27-2.598-1.377l1.573-6.92c1.055-0.817,2.967-0.942,2.967-2.762
		c0-1.129-1.788-2.516-2.59-2.516c-1.426,0-1.93,1.133-3.66,1.133c-4.65,0-7.259-1.953-11.727-3.888
		c0.317,1.515,1.604,1.935,2.354,3.197c-0.367,0.113-1.416,0.943-2.354,0.943c-2.176,0-7.384,1.256-7.384,3.188
		c0,1.955-1.984,2.918-1.984,4.849c0,1.254,0.37,2.205-0.369,3.442c-0.249-0.121-1.308-1.104-1.98-1.104
		c-1.169,0-2.172,0.551-2.854,1.543c-0.262-2.498-1.57-5.263-3.912-5.263c-2.73,0-3.379,2.765-6.881,2.765
		c-0.26,3.195-2.854,3.713-2.854,7.596c-1.069,0-1.748-0.557-2.741-1.092c-0.682,1.531,0,3.592-1.485,4.541
		c-0.503-0.949-1.343-1.506-1.976-2.754c-1.294,0.684-1.719,2.057-1.719,3.455v2.364c0,4.707-10.676,8.556-15.337,9.382
		c-2.479,0.424-7.181,0.688-8.726,2.377c-1.422,1.491-4.399,4.953-6.863,5.262c0-0.434,0.28-0.994,0.139-1.42
		c-0.562,0.299-1.213,0.559-1.213,1.688v8.019c0,3.453,1.361,5.104,1.361,7.176c0,0.691,0.211,1.25-0.137,1.811
		c-0.442-0.434-1.022-1.117-1.257-1.811c-0.449,0.691-0.604,1.25-0.853,1.811c-0.604,2.074,1.986,2.771,2.592,4.852
		c1.678,5.391,2.11,7.336,3.646,13.422c0.632,2.461,2.61,4.676,2.61,8.688c0,3.193-2.972,4.146-2.972,6.217
		c0,1.938,6.213,4.844,8.432,4.844c5.894,0,7.812-4.539,12.407-4.539c1.547,0,1.547-1.125,3.662,0c2.851,0,5.055-0.705,7.814-1.006
		c0.985-7.035,9.24-4.533,15.877-6.908c2.862-0.945,3.789-3.141,8.436-3.141c4.346,0,12.044,1.371,14.091,4.145
		c1.05,1.512,3.913,8.289,4.841,8.289c0,0-0.511,2.465,1.049,2.465c2.731,0,5.963-7.17,8.322-9.684
		c0.112,2.076-0.504,9.287-3.799,9.986c0,0.691,0.693,1.367,1.312,1.367c1.98,0,2.115-2.49,3.297-3.059
		c0-0.4,0.246-0.943,0.246-1.377c0.545,0.553,1.293,1.268,1.293,2.919c0,1.384-0.502,3.206-0.935,3.206h1.563
		c1.052,0,1.729-0.587,2.604-1.095c0,0.116,0.176,0.575,0.176,0.575c0.131,1.805,1.812,3.447,1.812,5.521
		c0,5.658,8.307,9.219,13.392,9.219c3.295,0,2.254-2.768,5.221-3.031c0.16,0.826,5.604,4.004,6.648,4.15
		c0.992-6.662,12.246-3.76,13.246-10.113v0.25c0-4.832,2.652-9.1,3.682-12.436c1.332-4.396,3.352-5.785,5.687-9.668
		c0.683-1.109,0.634-1.633,0.634-2.758v-3.889c2-1.217,2.193-5.531,2.193-8.551c0-4.146-1.203-11.635-3.248-14.521L196.204,77.229z"
		/>
	<g>
		<g>
			<g>
				<path fill="#394045" d="M178.479,121.238l0.851,5.248l2.386-5.248h1.29L182,128.096h-0.979l0.338-2.322l0.515-2.856l-2.39,5.181
					h-0.709l-0.891-5.337l-0.361,3.138l-0.322,2.199h-0.979l1.008-6.856L178.479,121.238L178.479,121.238z"/>
				<path fill="#394045" d="M185.376,128.189c-0.377-0.01-0.708-0.115-0.993-0.318c-0.285-0.205-0.508-0.5-0.668-0.889
					c-0.158-0.391-0.249-0.828-0.271-1.32c-0.02-0.395,0.013-0.854,0.091-1.375c0.077-0.525,0.218-1.004,0.418-1.438
					c0.2-0.432,0.438-0.781,0.719-1.057c0.46-0.445,0.991-0.662,1.595-0.65c0.572,0.016,1.03,0.246,1.371,0.701
					c0.342,0.457,0.527,1.072,0.562,1.85c0.016,0.389-0.015,0.836-0.091,1.34c-0.074,0.504-0.205,0.967-0.391,1.389
					c-0.185,0.422-0.414,0.775-0.688,1.057C186.557,127.969,186.006,128.207,185.376,128.189z M187.188,124.484l0.037-0.5
					c0.017-0.344-0.011-0.658-0.076-0.949c-0.065-0.289-0.18-0.512-0.336-0.664c-0.158-0.152-0.357-0.232-0.601-0.242
					c-0.335-0.012-0.632,0.1-0.892,0.334c-0.26,0.236-0.469,0.594-0.629,1.074c-0.16,0.479-0.256,1.084-0.28,1.809
					c-0.026,0.574,0.048,1.027,0.224,1.357c0.176,0.328,0.438,0.5,0.788,0.512c0.46,0.018,0.839-0.188,1.138-0.611
					c0.299-0.422,0.494-1.021,0.588-1.787L187.188,124.484z"/>
				<path fill="#394045" d="M193.079,128.096h-0.952l-1.812-4.912l-0.721,4.912h-0.982l1.008-6.855h0.951l1.812,4.932l0.727-4.932
					h0.979L193.079,128.096z"/>
				<path fill="#394045" d="M195.262,128.096h-0.979l1.008-6.855h0.979L195.262,128.096z"/>
				<path fill="#394045" d="M201.061,125.859c-0.099,0.715-0.369,1.287-0.815,1.711c-0.446,0.426-0.989,0.633-1.629,0.619
					c-0.369-0.01-0.692-0.111-0.972-0.312c-0.276-0.197-0.494-0.484-0.649-0.863c-0.157-0.379-0.245-0.807-0.265-1.281
					c-0.017-0.357,0.021-0.848,0.111-1.465c0.09-0.615,0.264-1.17,0.521-1.658c0.256-0.49,0.57-0.859,0.943-1.107
					c0.373-0.246,0.787-0.367,1.243-0.357c0.576,0.016,1.032,0.229,1.368,0.645s0.516,0.99,0.536,1.723h-0.976
					c-0.016-0.488-0.103-0.844-0.264-1.062c-0.158-0.22-0.396-0.332-0.715-0.343c-0.434-0.017-0.795,0.168-1.087,0.552
					c-0.292,0.383-0.489,0.938-0.59,1.67l-0.079,0.627l-0.036,0.479c-0.021,0.323-0.002,0.627,0.06,0.91
					c0.06,0.284,0.164,0.502,0.314,0.649s0.345,0.229,0.578,0.237c0.74,0.033,1.216-0.42,1.426-1.36L201.061,125.859z"/>
				<path fill="#394045" d="M205.025,126.5h-2.172l-0.691,1.596h-1.061l3.131-6.855h0.885l1.123,6.855h-0.987L205.025,126.5z
					 M203.27,125.539h1.625l-0.395-2.836L203.27,125.539z"/>
				<path fill="#394045" d="M178.46,137.547h-0.952l-1.812-4.912l-0.721,4.912h-0.983l1.008-6.855h0.952l1.812,4.932l0.726-4.932
					h0.979L178.46,137.547z"/>
				<path fill="#394045" d="M181.466,137.641c-0.375-0.01-0.698-0.121-0.974-0.334c-0.275-0.215-0.479-0.506-0.609-0.877
					c-0.132-0.369-0.182-0.783-0.148-1.236l0.013-0.193c0.048-0.52,0.176-0.982,0.384-1.396c0.209-0.41,0.469-0.725,0.779-0.938
					s0.646-0.314,1.012-0.305c0.539,0.012,0.943,0.25,1.213,0.711c0.271,0.463,0.371,1.062,0.307,1.807l-0.058,0.49h-2.713
					c-0.022,0.402,0.045,0.729,0.207,0.977s0.386,0.375,0.669,0.381c0.407,0.018,0.781-0.191,1.124-0.627l0.479,0.596
					c-0.183,0.305-0.418,0.541-0.715,0.709C182.141,137.568,181.816,137.646,181.466,137.641z M181.868,133.27
					c-0.499-0.018-0.874,0.398-1.123,1.256l1.788,0.004l0.016-0.102c0.02-0.143,0.021-0.285,0.004-0.424
					c-0.029-0.223-0.104-0.398-0.223-0.527C182.211,133.35,182.057,133.279,181.868,133.27z"/>
				<path fill="#394045" d="M187.65,135.959l1.184-3.508h0.947l-1.889,5.096h-0.775l-0.379-3.486l-1.396,3.486h-0.78l-0.396-5.096
					h0.894l0.162,3.457l1.362-3.457h0.713L187.65,135.959z"/>
				<path fill="#394045" d="M191.518,136.732c0.229,0.006,0.428-0.072,0.602-0.234s0.285-0.373,0.333-0.633l0.894-0.004
					c-0.029,0.336-0.134,0.641-0.311,0.918c-0.178,0.273-0.402,0.488-0.68,0.645c-0.276,0.155-0.563,0.229-0.863,0.217
					c-0.369-0.006-0.686-0.117-0.944-0.34c-0.26-0.219-0.45-0.521-0.569-0.91c-0.117-0.389-0.158-0.818-0.117-1.299l0.012-0.164
					c0.045-0.492,0.166-0.938,0.363-1.34c0.197-0.4,0.453-0.709,0.768-0.926c0.312-0.217,0.661-0.318,1.044-0.305
					c0.468,0.012,0.841,0.193,1.119,0.547s0.418,0.812,0.418,1.379h-0.884c0-0.293-0.062-0.531-0.184-0.717
					c-0.121-0.188-0.295-0.283-0.521-0.299c-0.369-0.012-0.66,0.176-0.872,0.559c-0.213,0.383-0.327,0.922-0.343,1.619
					C190.759,136.291,191.006,136.719,191.518,136.732z"/>
				<path fill="#394045" d="M196.341,137.547c-0.032-0.127-0.045-0.285-0.04-0.477c-0.354,0.393-0.738,0.582-1.15,0.568
					c-0.375-0.006-0.686-0.146-0.93-0.426c-0.246-0.279-0.361-0.631-0.346-1.059c0.021-0.535,0.218-0.959,0.59-1.268
					c0.371-0.309,0.871-0.463,1.497-0.463l0.614,0.01l0.056-0.348c0.017-0.123,0.017-0.236,0-0.344
					c-0.054-0.34-0.243-0.514-0.569-0.523c-0.201-0.006-0.379,0.057-0.53,0.184c-0.152,0.127-0.246,0.297-0.281,0.512l-0.942,0.008
					c0.02-0.312,0.111-0.588,0.281-0.826c0.17-0.234,0.396-0.422,0.678-0.553c0.281-0.133,0.578-0.195,0.894-0.188
					c0.471,0.012,0.837,0.18,1.1,0.5s0.372,0.738,0.327,1.252l-0.331,2.387l-0.032,0.424c-0.008,0.188,0.014,0.365,0.062,0.541
					l-0.005,0.086L196.341,137.547L196.341,137.547z M195.369,136.727c0.199,0.008,0.384-0.047,0.554-0.16
					c0.17-0.115,0.313-0.266,0.435-0.445l0.146-0.965l-0.449-0.006c-0.354,0-0.641,0.078-0.854,0.236
					c-0.212,0.158-0.333,0.377-0.362,0.652c-0.021,0.211,0.019,0.377,0.118,0.498C195.057,136.656,195.193,136.721,195.369,136.727z
					"/>
				<path fill="#394045" d="M200.639,136.133c0.045-0.311-0.125-0.523-0.513-0.646c-0.387-0.121-0.649-0.217-0.791-0.288
					c-0.547-0.277-0.812-0.697-0.792-1.265c0.014-0.457,0.189-0.836,0.527-1.138c0.339-0.301,0.744-0.446,1.217-0.438
					c0.457,0.007,0.829,0.158,1.117,0.455c0.287,0.299,0.43,0.688,0.425,1.174l-0.938-0.006c0.008-0.233-0.049-0.42-0.162-0.554
					c-0.113-0.133-0.271-0.202-0.471-0.209c-0.21,0-0.39,0.062-0.54,0.185c-0.149,0.123-0.235,0.283-0.261,0.479
					c-0.037,0.285,0.133,0.484,0.51,0.597c0.377,0.111,0.656,0.215,0.838,0.31c0.524,0.272,0.778,0.698,0.762,1.28
					c-0.016,0.322-0.104,0.604-0.271,0.845c-0.167,0.239-0.388,0.424-0.667,0.553c-0.276,0.127-0.575,0.187-0.888,0.177
					c-0.471-0.007-0.86-0.168-1.17-0.483c-0.311-0.318-0.461-0.726-0.456-1.222l0.911,0.006c0.007,0.271,0.074,0.479,0.209,0.621
					c0.132,0.142,0.312,0.213,0.545,0.218c0.232,0,0.429-0.06,0.584-0.173C200.521,136.492,200.611,136.334,200.639,136.133z"/>
				<path fill="#394045" d="M204.257,131.213l-0.183,1.238h0.734l-0.123,0.848h-0.74l-0.405,2.854
					c-0.008,0.078-0.011,0.147-0.004,0.214c0.016,0.202,0.122,0.311,0.317,0.317c0.1,0,0.209-0.015,0.334-0.041l-0.062,0.896
					c-0.196,0.065-0.396,0.101-0.594,0.101c-0.329-0.009-0.576-0.142-0.739-0.397c-0.163-0.261-0.229-0.603-0.193-1.029l0.402-2.91
					h-0.688l0.127-0.848h0.687l0.183-1.238h0.947L204.257,131.213L204.257,131.213z"/>
				<path fill="#394045" d="M205.777,137.547h-0.943l1.062-7.234h0.943L205.777,137.547z"/>
				<path fill="#394045" d="M208.745,137.641c-0.375-0.01-0.699-0.121-0.974-0.334c-0.275-0.215-0.479-0.506-0.609-0.877
					c-0.133-0.369-0.182-0.783-0.148-1.236l0.012-0.193c0.049-0.52,0.177-0.982,0.385-1.396c0.209-0.41,0.469-0.725,0.777-0.938
					c0.312-0.213,0.647-0.314,1.014-0.305c0.539,0.012,0.941,0.25,1.213,0.711c0.27,0.463,0.371,1.062,0.305,1.807l-0.056,0.49
					h-2.713c-0.023,0.402,0.045,0.729,0.207,0.977c0.161,0.248,0.385,0.375,0.669,0.381c0.406,0.018,0.779-0.191,1.124-0.627
					l0.478,0.596c-0.181,0.305-0.418,0.541-0.713,0.709S209.096,137.646,208.745,137.641z M209.146,133.27
					c-0.498-0.018-0.873,0.398-1.123,1.256l1.787,0.004l0.018-0.102c0.02-0.143,0.021-0.285,0.004-0.424
					c-0.029-0.223-0.104-0.398-0.223-0.527C209.49,133.35,209.336,133.279,209.146,133.27z"/>
			</g>
		</g>
		<path fill="#E3032E" d="M198.577,112.1c0,3.451-2.795,6.25-6.251,6.25c-3.447,0-6.244-2.799-6.244-6.25
			c0-3.447,2.797-6.242,6.244-6.242C195.782,105.855,198.577,108.65,198.577,112.1z"/>
	</g>
</g>
</svg>
