<?xml version="1.0" encoding="utf-8"?>
<!-- Generator: Adobe Illustrator 16.0.0, SVG Export Plug-In . SVG Version: 6.00 Build 0)  -->
<!DOCTYPE svg PUBLIC "-//W3C//DTD SVG 1.1//EN" "http://www.w3.org/Graphics/SVG/1.1/DTD/svg11.dtd">
<svg version="1.1" id="Layer_1" xmlns="http://www.w3.org/2000/svg" xmlns:xlink="http://www.w3.org/1999/xlink" x="0px" y="0px"
	 width="60px" height="40px" viewBox="0 0 60 40" enable-background="new 0 0 60 40" xml:space="preserve">
<g>
	<rect x="0" fill="#164194" stroke="#164194" stroke-miterlimit="10" width="60" height="40"/>
	<polygon fill="#FFED00" points="28.722,8.715 29.987,7.791 31.253,8.715 30.772,7.221 32.058,6.297 30.473,6.297 29.987,4.784 
		29.502,6.299 27.918,6.297 29.204,7.221 	"/>
	<polygon fill="#FFED00" points="22.169,10.476 23.436,9.552 24.702,10.476 24.22,8.981 25.505,8.058 23.92,8.058 23.435,6.543 
		22.95,8.06 21.366,8.058 22.651,8.981 	"/>
	<polygon fill="#FFED00" points="18.642,11.348 18.157,12.863 16.572,12.862 17.857,13.786 17.375,15.28 18.642,14.356 
		19.908,15.28 19.426,13.786 20.711,12.862 19.127,12.862 	"/>
	<polygon fill="#FFED00" points="16.883,20.899 18.149,21.824 17.668,20.33 18.953,19.406 17.369,19.406 16.883,17.892 
		16.398,19.409 14.812,19.406 16.099,20.33 15.617,21.824 	"/>
	<polygon fill="#FFED00" points="19.127,25.969 18.642,24.455 18.157,25.971 16.572,25.969 17.857,26.894 17.375,28.388 
		18.642,27.462 19.908,28.388 19.426,26.894 20.711,25.969 	"/>
	<polygon fill="#FFED00" points="23.93,30.772 23.445,29.261 22.96,30.773 21.375,30.772 22.661,31.696 22.18,33.191 23.446,32.267 
		24.711,33.191 24.231,31.696 25.515,30.772 	"/>
	<polygon fill="#FFED00" points="30.474,32.513 29.988,30.999 29.504,32.515 27.919,32.513 29.205,33.437 28.724,34.931 
		29.989,34.007 31.254,34.931 30.773,33.437 32.059,32.513 	"/>
	<polygon fill="#FFED00" points="37.017,30.772 36.534,29.261 36.047,30.773 34.464,30.772 35.749,31.696 35.267,33.191 
		36.534,32.267 37.8,33.191 37.317,31.696 38.603,30.772 	"/>
	<polygon fill="#FFED00" points="41.822,25.969 41.337,24.455 40.851,25.971 39.268,25.969 40.554,26.894 40.071,28.388 
		41.337,27.462 42.603,28.388 42.12,26.894 43.406,25.969 	"/>
	<polygon fill="#FFED00" points="45.147,19.388 43.562,19.388 43.076,17.874 42.591,19.39 41.005,19.388 42.292,20.311 
		41.81,21.806 43.076,20.881 44.341,21.806 43.86,20.311 	"/>
	<polygon fill="#FFED00" points="40.071,15.261 41.337,14.336 42.603,15.261 42.12,13.767 43.406,12.844 41.822,12.844 
		41.337,11.33 40.851,12.846 39.268,12.844 40.554,13.767 	"/>
	<polygon fill="#FFED00" points="36.551,6.545 36.066,8.061 34.483,8.058 35.767,8.982 35.286,10.478 36.553,9.552 37.818,10.478 
		37.336,8.982 38.623,8.058 37.037,8.058 	"/>
</g>
</svg>
