<?xml version="1.0" encoding="utf-8"?>
<!-- Generator: Adobe Illustrator 16.0.0, SVG Export Plug-In . SVG Version: 6.00 Build 0)  -->
<!DOCTYPE svg PUBLIC "-//W3C//DTD SVG 1.1//EN" "http://www.w3.org/Graphics/SVG/1.1/DTD/svg11.dtd">
<svg version="1.1" id="Layer_1" xmlns="http://www.w3.org/2000/svg" xmlns:xlink="http://www.w3.org/1999/xlink" x="0px" y="0px"
	 width="60px" height="30px" viewBox="0 0 60 30" enable-background="new 0 0 60 30" xml:space="preserve">
<g>
	<g>
		<rect fill="#E52620" width="60" height="30"/>
		<rect x="15" fill="#FFFFFF" width="30" height="30"/>
		<g>
			<defs>
				<rect id="SVGID_1_" width="60" height="30"/>
			</defs>
			<clipPath id="SVGID_2_">
				<use xlink:href="#SVGID_1_"  overflow="visible"/>
			</clipPath>
			<path clip-path="url(#SVGID_2_)" fill="#E52620" d="M29.999,2.812L27.952,6.63c-0.231,0.415-0.648,0.376-1.064,0.144
				l-1.481-0.767l1.104,5.864c0.232,1.071-0.513,1.071-0.881,0.608l-2.586-2.895l-0.42,1.47c-0.049,0.193-0.261,0.396-0.58,0.348
				l-3.271-0.688l0.858,3.123c0.185,0.695,0.327,0.982-0.186,1.166l-1.165,0.548l5.629,4.573c0.223,0.173,0.336,0.484,0.256,0.766
				l-0.492,1.617c1.938-0.223,3.675-0.56,5.613-0.767c0.172-0.018,0.458,0.265,0.457,0.463l-0.257,5.924h0.942l-0.147-5.911
				c-0.002-0.198,0.258-0.494,0.43-0.476c1.938,0.207,3.676,0.543,5.614,0.767l-0.493-1.617c-0.079-0.282,0.034-0.593,0.257-0.766
				l5.629-4.573l-1.166-0.548c-0.513-0.183-0.369-0.471-0.186-1.166l0.859-3.123l-3.271,0.688c-0.319,0.048-0.532-0.154-0.581-0.348
				l-0.419-1.47l-2.587,2.895c-0.367,0.463-1.112,0.463-0.881-0.608l1.105-5.864l-1.482,0.767c-0.416,0.232-0.832,0.271-1.064-0.144
				"/>
		</g>
	</g>
</g>
</svg>
