<?xml version="1.0" encoding="utf-8"?>
<!-- Generator: Adobe Illustrator 16.0.0, SVG Export Plug-In . SVG Version: 6.00 Build 0)  -->
<!DOCTYPE svg PUBLIC "-//W3C//DTD SVG 1.1//EN" "http://www.w3.org/Graphics/SVG/1.1/DTD/svg11.dtd">
<svg version="1.1" id="Layer_1" xmlns="http://www.w3.org/2000/svg" xmlns:xlink="http://www.w3.org/1999/xlink" x="0px" y="0px"
	 width="125px" height="125px" viewBox="0 0 125 125" enable-background="new 0 0 125 125" xml:space="preserve">
<g>
	<path fill="#005076" d="M124,71.475c0-11.231-6.234-20.354-15.354-24.208c2.975-2.743,4.854-6.66,4.854-11.016
		c0-8.271-6.729-15-15-15s-15,6.729-15,15c0,4.516,2.016,8.563,5.184,11.316c-6.645,3.156-11.771,9.333-13.668,17.221
		c-0.74-0.404-1.509-0.763-2.295-1.089C75.652,60.958,77.5,57.07,77.5,52.75c0-8.271-6.729-15-15-15s-15,6.729-15,15
		c0,4.32,1.848,8.208,4.779,10.947c-0.908,0.379-1.792,0.801-2.638,1.283c-1.819-7.864-6.802-14.045-13.493-17.266
		c3.269-2.752,5.352-6.868,5.352-11.465c0-8.271-6.729-15-15-15s-15,6.729-15,15c0,4.288,1.819,8.152,4.714,10.888
		C7.215,50.92,1,60.121,1,71.475V87.25h36.026C37.021,87.488,37,87.723,37,87.962v15.788h13.5v-16.5h-3v13.5H40V87.962
		c0-10.702,6.168-19.269,15.139-22.157c2.178,1.232,4.688,1.945,7.361,1.945s5.184-0.712,7.361-1.945
		C78.832,68.693,85,77.26,85,87.962v12.788h-7.5v-13.5h-3v16.5H88V87.962c0-0.239-0.021-0.474-0.025-0.712H124V71.475z M14.5,36.25
		c0-6.617,5.383-12,12-12s12,5.383,12,12c0,4.286-2.266,8.043-5.656,10.167c-0.914,0.571-1.908,1.025-2.963,1.339
		c-0.031,0.01-0.062,0.016-0.096,0.025c-0.446,0.129-0.906,0.226-1.372,0.302c-0.118,0.019-0.239,0.038-0.358,0.054
		c-0.51,0.067-1.025,0.113-1.555,0.113c-0.586,0-1.158-0.056-1.721-0.138c-0.111-0.016-0.223-0.032-0.333-0.051
		c-0.563-0.098-1.116-0.227-1.651-0.403c-0.014-0.004-0.027-0.01-0.042-0.016c-0.562-0.186-1.103-0.413-1.623-0.677
		c-0.021-0.009-0.04-0.018-0.059-0.028c-0.534-0.274-1.048-0.584-1.532-0.932l0,0C16.495,43.828,14.5,40.271,14.5,36.25z
		 M37.248,84.25H16v-12h-3v12H4V71.475c0-10.711,6.155-19.289,15.129-22.176c2.18,1.236,4.691,1.951,7.371,1.951
		c2.406,0,4.676-0.584,6.693-1.595c7.068,2.66,12.285,8.927,13.799,17.091C41.729,70.758,38.157,76.926,37.248,84.25z
		 M60.807,64.617c-0.117-0.018-0.231-0.034-0.349-0.055c-0.554-0.098-1.097-0.222-1.623-0.392c-0.009-0.003-0.019-0.007-0.026-0.011
		c-0.541-0.178-1.062-0.396-1.567-0.645c-0.048-0.021-0.095-0.043-0.14-0.065c-0.518-0.263-1.015-0.558-1.485-0.89
		c-3.089-2.172-5.116-5.756-5.116-9.811c0-6.617,5.383-12,12-12s12,5.383,12,12c0,4.055-2.027,7.639-5.115,9.812
		c-0.472,0.332-0.969,0.627-1.484,0.89c-0.047,0.022-0.094,0.044-0.141,0.067c-0.505,0.248-1.025,0.467-1.568,0.643
		c-0.008,0.004-0.018,0.008-0.024,0.011c-0.524,0.17-1.067,0.294-1.623,0.39c-0.116,0.021-0.229,0.037-0.351,0.057
		c-0.553,0.076-1.117,0.131-1.693,0.131S61.359,64.695,60.807,64.617z M86.5,36.25c0-6.617,5.383-12,12-12s12,5.383,12,12
		c0,4.084-2.055,7.695-5.184,9.863l0,0c-0.455,0.316-0.938,0.596-1.438,0.848c-0.068,0.035-0.145,0.069-0.215,0.104
		c-0.49,0.236-0.996,0.447-1.521,0.615c-0.006,0.001-0.014,0.004-0.02,0.007c-0.516,0.164-1.051,0.283-1.594,0.376
		c-0.12,0.021-0.243,0.04-0.365,0.056c-0.546,0.078-1.102,0.13-1.668,0.13c-0.542,0-1.072-0.048-1.596-0.119
		c-0.125-0.018-0.25-0.037-0.377-0.057c-0.496-0.083-0.986-0.188-1.461-0.331c-0.017-0.004-0.031-0.007-0.047-0.012
		c-0.52-0.158-1.019-0.354-1.502-0.579c-0.064-0.029-0.127-0.062-0.191-0.092c-0.473-0.227-0.932-0.478-1.367-0.763
		C88.677,44.154,86.5,40.454,86.5,36.25z M121,84.25h-9v-12h-3v12H87.752c-0.912-7.346-4.501-13.525-9.791-17.537
		c1.523-8.156,6.758-14.414,13.833-17.065c2.021,1.017,4.295,1.603,6.706,1.603c2.676,0,5.186-0.713,7.363-1.947
		C114.834,52.193,121,60.77,121,71.475V84.25z"/>
	<path fill="#66ABB9" d="M121,84.25h-9v-12h-3v12H87.752c-0.912-7.346-4.501-13.525-9.791-17.537
		c1.523-8.156,6.758-14.414,13.833-17.065c2.021,1.017,4.295,1.603,6.706,1.603c2.676,0,5.186-0.713,7.363-1.947
		C114.834,52.193,121,60.77,121,71.475V84.25z"/>
	<path fill="#EE6882" d="M37.248,84.25H16v-12h-3v12H4V71.475c0-10.711,6.155-19.289,15.129-22.176
		c2.18,1.236,4.691,1.951,7.371,1.951c2.406,0,4.676-0.584,6.693-1.595c7.068,2.66,12.285,8.927,13.799,17.091
		C41.729,70.758,38.157,76.926,37.248,84.25z"/>
</g>
</svg>
