<?xml version="1.0" encoding="utf-8"?>
<!-- Generator: Adobe Illustrator 16.0.0, SVG Export Plug-In . SVG Version: 6.00 Build 0)  -->
<!DOCTYPE svg PUBLIC "-//W3C//DTD SVG 1.1//EN" "http://www.w3.org/Graphics/SVG/1.1/DTD/svg11.dtd">
<svg version="1.1" id="Layer_1" xmlns="http://www.w3.org/2000/svg" xmlns:xlink="http://www.w3.org/1999/xlink" x="0px" y="0px"
	 width="125px" height="125px" viewBox="0 0 125 125" enable-background="new 0 0 125 125" xml:space="preserve">
<g>
	<path fill="#005076" d="M104.842,72.866l0.475,0.255V55.504L85.337,45.169V32.68L62.5,20.5L39.663,32.68v12.489L19.68,55.504
		v17.617l0.476-0.256l-7.611,4.061v25.977l22.837,12.185l14.132-7.539l-2.127,1.134L62.5,116.5l15.116-7.818l-2.128-1.135
		l14.134,7.537l22.834-12.184V76.928L104.842,72.866z M62.5,23.737l18.377,9.8l-18.377,9.8l-18.376-9.8L62.5,23.737z M82.482,35.916
		v21.029l-18.556,9.894V45.813L82.482,35.916z M42.517,35.916l18.555,9.896v21.027l-18.555-9.894V35.916z M33.954,111.088
		l-18.555-9.896V80.163l18.555,9.896V111.088z M17.005,77.783l18.376-9.801l18.376,9.801l-18.376,9.799L17.005,77.783z
		 M36.808,90.059l18.555-9.896v21.028l-18.555,9.896V90.059z M62.5,113.285l-12.057-6.237l7.774-4.146V76.928L35.381,64.745
		l-12.846,6.853V57.242l17.127-8.861v10.274L62.5,70.838l22.836-12.183V48.381l17.129,8.861v14.355l-12.846-6.853l-22.84,12.18
		v25.978l7.775,4.147L62.5,113.285z M88.191,111.088l-18.555-9.896V80.163l18.555,9.896V111.088z M71.242,77.783l18.377-9.801
		l18.377,9.801l-18.377,9.799L71.242,77.783z M109.602,101.191l-18.555,9.896v-21.03l18.555-9.895V101.191z"/>
	<polygon fill="#EE6882" points="42.517,35.916 61.071,45.813 61.071,66.839 42.517,56.945 	"/>
	<polygon fill="#66ABB9" points="88.191,111.088 69.637,101.191 69.637,80.163 88.191,90.059 	"/>
	<polygon fill="#66ABB9" points="33.954,111.088 15.398,101.191 15.398,80.163 33.954,90.059 	"/>
</g>
</svg>
