<?xml version="1.0" encoding="utf-8"?>
<!-- Generator: Adobe Illustrator 16.0.0, SVG Export Plug-In . SVG Version: 6.00 Build 0)  -->
<!DOCTYPE svg PUBLIC "-//W3C//DTD SVG 1.1//EN" "http://www.w3.org/Graphics/SVG/1.1/DTD/svg11.dtd">
<svg version="1.1" id="Layer_1" xmlns="http://www.w3.org/2000/svg" xmlns:xlink="http://www.w3.org/1999/xlink" x="0px" y="0px"
	 width="125px" height="125px" viewBox="0 0 125 125" enable-background="new 0 0 125 125" xml:space="preserve">
<g>
	<g>
		<path fill="#005076" d="M115.152,21H9.847C6.631,21,4,23.631,4,26.846v67.808c0,3.215,2.631,5.846,5.847,5.846H55v7.5H43v9h39v-9
			H70v-7.5h45.152c3.217,0,5.848-2.631,5.848-5.846V26.846C121,23.631,118.369,21,115.152,21z M79,111v3H46v-3h12v-10.5h9V111H79z
			 M118,94.654c0,1.568-1.277,2.846-2.848,2.846H71.5h-15H9.847C8.278,97.5,7,96.223,7,94.654V26.846C7,25.277,8.277,24,9.847,24
			H115h0.076c1.57,0,2.924,1.277,2.924,2.846V94.654z"/>
		<path fill="#005076" d="M11.5,93h102V28.5h-102V93z M14.5,31.5h96V90h-96V31.5z"/>
		<path fill="#005076" d="M80.5,51c3.311,0,6-2.691,6-6s-2.689-6-6-6s-6,2.691-6,6c0,1.452,0.539,2.767,1.4,3.807L63.177,66.423
			C62.5,66.158,61.77,66,61,66c-1.107,0-2.139,0.324-3.029,0.85l-8.72-8.72C50.037,56.944,50.5,55.526,50.5,54
			c0-4.135-3.364-7.5-7.5-7.5s-7.5,3.365-7.5,7.5c0,2.057,0.835,3.92,2.18,5.275l-7.72,11.58c-0.617-0.215-1.27-0.354-1.96-0.354
			c-3.31,0-6,2.69-6,6s2.69,6,6,6s6-2.69,6-6c0-1.533-0.595-2.92-1.544-3.979l7.72-11.582c0.873,0.356,1.825,0.562,2.824,0.562
			c1.526,0,2.944-0.463,4.13-1.25l8.72,8.72C55.324,69.861,55,70.891,55,72c0,3.311,2.689,6,6,6s6-2.689,6-6
			c0-1.451-0.539-2.768-1.4-3.807l12.726-17.616C79,50.842,79.73,51,80.5,51z M80.5,42c1.652,0,3,1.346,3,3s-1.348,3-3,3
			s-3-1.346-3-3S78.848,42,80.5,42z M28,79.5c-1.653,0-3-1.346-3-3s1.347-3,3-3s3,1.346,3,3S29.653,79.5,28,79.5z M38.5,54
			c0-2.481,2.019-4.5,4.5-4.5s4.5,2.019,4.5,4.5s-2.019,4.5-4.5,4.5S38.5,56.481,38.5,54z M61,75c-1.652,0-3-1.346-3-3s1.348-3,3-3
			s3,1.346,3,3S62.652,75,61,75z"/>
		<rect x="79" y="61.5" fill="#005076" width="6" height="19.5"/>
		<rect x="88" y="54" fill="#005076" width="6" height="27"/>
		<rect x="97" y="48" fill="#005076" width="6" height="33"/>
	</g>
	<path fill="#66ABB9" d="M115.076,24H115H9.847C8.278,24,7,25.277,7,26.846v67.808C7,96.223,8.277,97.5,9.847,97.5H56.5h15h43.652
		c1.57,0,2.848-1.277,2.848-2.846V26.846C118,25.277,116.646,24,115.076,24z M113.5,93h-102V28.5h102V93z"/>
	<path fill="#EE6882" d="M38.5,54c0-2.481,2.019-4.5,4.5-4.5s4.5,2.019,4.5,4.5s-2.019,4.5-4.5,4.5S38.5,56.481,38.5,54z"/>
	<path fill="#EE6882" d="M80.5,42c1.652,0,3,1.346,3,3s-1.348,3-3,3s-3-1.346-3-3S78.848,42,80.5,42z"/>
	<path fill="#EE6882" d="M61,75c-1.652,0-3-1.346-3-3s1.348-3,3-3s3,1.346,3,3S62.652,75,61,75z"/>
	<path fill="#EE6882" d="M28,79.5c-1.653,0-3-1.346-3-3s1.347-3,3-3s3,1.346,3,3S29.653,79.5,28,79.5z"/>
	<polygon fill="#66ABB9" points="79,111 79,114 46,114 46,111 58,111 58,100.5 67,100.5 67,111 	"/>
</g>
</svg>
