<?xml version="1.0" encoding="utf-8"?>
<!-- Generator: Adobe Illustrator 16.0.0, SVG Export Plug-In . SVG Version: 6.00 Build 0)  -->
<!DOCTYPE svg PUBLIC "-//W3C//DTD SVG 1.1//EN" "http://www.w3.org/Graphics/SVG/1.1/DTD/svg11.dtd">
<svg version="1.1" id="Layer_1" xmlns="http://www.w3.org/2000/svg" xmlns:xlink="http://www.w3.org/1999/xlink" x="0px" y="0px"
	 width="125px" height="125px" viewBox="0 0 125 125" enable-background="new 0 0 125 125" xml:space="preserve">
<g>
	<path fill="#005076" d="M124,54.007v-8.464l-61.5-24.6L1,45.543v8.443l25.5,12.213v32.082c0,7.998,18.305,12.775,36,12.775
		c17.695,0,36-4.777,36-12.775V65.624l6-2.733v25.881c-2.581,0.67-4.5,3-4.5,5.785v19.5h3V99.723c0.466,0.271,0.967,0.481,1.5,0.623
		v16.711h3v-16.711c0.533-0.142,1.034-0.353,1.5-0.623v14.334h3v-19.5c0-2.785-1.919-5.115-4.5-5.785V61.523L124,54.007z
		 M109,94.557c0,1.656-1.346,3-3,3s-3-1.344-3-3c0-1.652,1.346-3,3-3S109,92.904,109,94.557z M95.5,98.281
		c0,4.613-14.111,9.775-33,9.775c-18.888,0-33-5.162-33-9.775V67.636l31.484,15.077L95.5,66.99V98.281z M61.016,79.402L4,52.097
		v-4.523l58.5-23.4L121,47.573v4.503l-13.5,6.152v-7.243L73.548,37.663l-1.096,2.792L104.5,53.03v6.562L61.016,79.402z"/>
	<path fill="#EE6882" d="M109,94.557c0,1.656-1.346,3-3,3s-3-1.344-3-3c0-1.652,1.346-3,3-3S109,92.904,109,94.557z"/>
	<polygon fill="#66ABB9" points="61.016,79.402 4,52.097 4,47.574 62.5,24.174 121,47.574 121,52.077 107.5,58.229 107.5,50.985 
		73.548,37.663 72.452,40.455 104.5,53.03 104.5,59.593 	"/>
</g>
</svg>
