<?xml version="1.0" encoding="utf-8"?>
<!-- Generator: Adobe Illustrator 16.0.0, SVG Export Plug-In . SVG Version: 6.00 Build 0)  -->
<!DOCTYPE svg PUBLIC "-//W3C//DTD SVG 1.1//EN" "http://www.w3.org/Graphics/SVG/1.1/DTD/svg11.dtd">
<svg version="1.1" id="Layer_1" xmlns="http://www.w3.org/2000/svg" xmlns:xlink="http://www.w3.org/1999/xlink" x="0px" y="0px"
	 width="134px" height="146px" viewBox="0 0 134 146" enable-background="new 0 0 134 146" xml:space="preserve">
<g>
	<rect fill="#FFFFFF" width="134" height="146"/>
	<ellipse fill="#00738B" cx="26.968" cy="22.216" rx="3.059" ry="3.05"/>
	<circle fill="#005076" cx="26.797" cy="42.18" r="4.587"/>
	<path fill="#E3032E" d="M32.574,64.796c0,3.097-2.508,5.608-5.607,5.608c-3.094,0-5.604-2.511-5.604-5.608
		c0-3.096,2.512-5.605,5.604-5.605C30.066,59.191,32.574,61.701,32.574,64.796z"/>
	<path fill="#B61F34" d="M34.164,89.938c0,4.223-3.427,7.645-7.647,7.645c-4.218,0-7.644-3.422-7.644-7.645
		c0-4.225,3.426-7.645,7.644-7.645C30.737,82.292,34.164,85.713,34.164,89.938z"/>
	<g>
		<path fill="#394045" d="M50.658,22.459v-0.62l4.665-2.219l0.316,0.859l-3.562,1.669l3.58,1.649l-0.317,0.869L50.658,22.459z"/>
		<path fill="#394045" d="M59.401,19.63c-0.406,0.25-0.855,0.43-1.386,0.5l-0.149-0.88c0.626-0.18,1.357-0.66,1.799-1.239h0.883
			v6.097h1.146v1h-3.591v-1h1.298V19.63z"/>
		<path fill="#394045" d="M62.869,23.838c0.502,0,0.723,0.46,0.723,0.959c0,0.81-0.396,1.52-1.226,1.849l-0.177-0.47
			c0.537-0.29,0.731-0.64,0.75-1.069c-0.079,0.03-0.15,0.05-0.229,0.05c-0.309,0-0.494-0.26-0.494-0.609
			C62.216,24.148,62.498,23.838,62.869,23.838z"/>
		<path fill="#394045" d="M66.362,17.911c1.446,0,2.239,1.25,2.239,3.608c0,2.488-0.819,3.718-2.284,3.718
			c-1.455,0-2.23-1.229-2.23-3.648C64.087,19.161,64.906,17.911,66.362,17.911z M66.345,24.118c0.74,0,1.103-0.86,1.103-2.549
			c0-1.639-0.335-2.548-1.103-2.548c-0.759,0-1.103,0.909-1.103,2.568C65.242,23.248,65.586,24.118,66.345,24.118z"/>
		<path fill="#394045" d="M71.763,17.911c1.446,0,2.24,1.25,2.24,3.608c0,2.488-0.82,3.718-2.285,3.718
			c-1.455,0-2.229-1.229-2.229-3.648C69.487,19.161,70.307,17.911,71.763,17.911z M71.745,24.118c0.74,0,1.102-0.86,1.102-2.549
			c0-1.639-0.335-2.548-1.102-2.548c-0.759,0-1.104,0.909-1.104,2.568C70.642,23.248,70.986,24.118,71.745,24.118z"/>
		<path fill="#394045" d="M77.162,17.911c1.446,0,2.24,1.25,2.24,3.608c0,2.488-0.82,3.718-2.285,3.718
			c-1.455,0-2.23-1.229-2.23-3.648C74.887,19.161,75.706,17.911,77.162,17.911z M77.145,24.118c0.74,0,1.103-0.86,1.103-2.549
			c0-1.639-0.335-2.548-1.103-2.548c-0.759,0-1.103,0.909-1.103,2.568C76.042,23.248,76.386,24.118,77.145,24.118z"/>
	</g>
	<g>
		<path fill="#394045" d="M52.299,39.594c-0.406,0.25-0.855,0.43-1.385,0.5l-0.15-0.88c0.626-0.18,1.358-0.66,1.799-1.239h0.884
			v6.097h1.146v1h-3.59v-1h1.297V39.594z"/>
		<path fill="#394045" d="M55.767,43.801c0.502,0,0.724,0.46,0.724,0.959c0,0.81-0.396,1.521-1.227,1.849l-0.177-0.47
			c0.538-0.29,0.732-0.64,0.75-1.069c-0.079,0.03-0.149,0.05-0.229,0.05c-0.31,0-0.494-0.26-0.494-0.609
			C55.113,44.111,55.396,43.801,55.767,43.801z"/>
		<path fill="#394045" d="M59.26,37.875c1.446,0,2.24,1.25,2.24,3.608c0,2.488-0.82,3.718-2.285,3.718
			c-1.455,0-2.229-1.229-2.229-3.648C56.984,39.124,57.804,37.875,59.26,37.875z M59.242,44.082c0.74,0,1.102-0.86,1.102-2.549
			c0-1.639-0.335-2.548-1.102-2.548c-0.76,0-1.104,0.909-1.104,2.568C58.139,43.212,58.483,44.082,59.242,44.082z"/>
		<path fill="#394045" d="M64.66,37.875c1.446,0,2.24,1.25,2.24,3.608c0,2.488-0.82,3.718-2.285,3.718
			c-1.455,0-2.23-1.229-2.23-3.648C62.385,39.124,63.204,37.875,64.66,37.875z M64.643,44.082c0.74,0,1.103-0.86,1.103-2.549
			c0-1.639-0.335-2.548-1.103-2.548c-0.759,0-1.103,0.909-1.103,2.568C63.54,43.212,63.884,44.082,64.643,44.082z"/>
		<path fill="#394045" d="M70.061,37.875c1.445,0,2.239,1.25,2.239,3.608c0,2.488-0.819,3.718-2.285,3.718
			c-1.454,0-2.229-1.229-2.229-3.648C67.784,39.124,68.604,37.875,70.061,37.875z M70.042,44.082c0.74,0,1.103-0.86,1.103-2.549
			c0-1.639-0.336-2.548-1.103-2.548c-0.759,0-1.103,0.909-1.103,2.568C68.939,43.212,69.283,44.082,70.042,44.082z"/>
		<path fill="#394045" d="M74.552,41.962h4.41v0.85h-4.41V41.962z"/>
		<path fill="#394045" d="M81.558,37.975h3.255l-0.062,1.12h-2.302l-0.159,1.889c0.238-0.24,0.591-0.439,1.146-0.439
			c1.051,0,1.702,0.77,1.702,2.208c0,1.629-0.97,2.449-2.178,2.449c-0.635,0-1.395-0.24-1.949-0.76l0.379-0.839
			c0.538,0.33,0.979,0.51,1.446,0.51c0.662,0,1.2-0.41,1.2-1.339c0-0.819-0.318-1.239-0.937-1.239c-0.432,0-0.695,0.21-0.873,0.42
			l-0.044,0.52h-0.935L81.558,37.975z"/>
		<path fill="#394045" d="M86.551,43.801c0.502,0,0.724,0.46,0.724,0.959c0,0.81-0.396,1.521-1.227,1.849l-0.177-0.47
			c0.538-0.29,0.732-0.64,0.75-1.069c-0.079,0.03-0.15,0.05-0.229,0.05c-0.31,0-0.494-0.26-0.494-0.609
			C85.896,44.111,86.18,43.801,86.551,43.801z"/>
		<path fill="#394045" d="M90.045,37.875c1.446,0,2.24,1.25,2.24,3.608c0,2.488-0.82,3.718-2.285,3.718
			c-1.455,0-2.23-1.229-2.23-3.648C87.77,39.124,88.589,37.875,90.045,37.875z M90.027,44.082c0.739,0,1.102-0.86,1.102-2.549
			c0-1.639-0.335-2.548-1.102-2.548c-0.76,0-1.104,0.909-1.104,2.568C88.924,43.212,89.27,44.082,90.027,44.082z"/>
		<path fill="#394045" d="M95.444,37.875c1.445,0,2.239,1.25,2.239,3.608c0,2.488-0.819,3.718-2.285,3.718
			c-1.454,0-2.229-1.229-2.229-3.648C93.169,39.124,93.988,37.875,95.444,37.875z M95.427,44.082c0.74,0,1.103-0.86,1.103-2.549
			c0-1.639-0.335-2.548-1.103-2.548c-0.759,0-1.103,0.909-1.103,2.568C94.324,43.212,94.668,44.082,95.427,44.082z"/>
		<path fill="#394045" d="M100.845,37.875c1.446,0,2.24,1.25,2.24,3.608c0,2.488-0.82,3.718-2.285,3.718
			c-1.455,0-2.229-1.229-2.229-3.648C98.569,39.124,99.389,37.875,100.845,37.875z M100.827,44.082c0.74,0,1.102-0.86,1.102-2.549
			c0-1.639-0.335-2.548-1.102-2.548c-0.759,0-1.104,0.909-1.104,2.568C99.724,43.212,100.068,44.082,100.827,44.082z"/>
	</g>
	<g>
		<path fill="#394045" d="M51.24,60.591h3.254l-0.062,1.12H52.13L51.971,63.6c0.238-0.24,0.591-0.439,1.146-0.439
			c1.05,0,1.702,0.77,1.702,2.208c0,1.629-0.971,2.449-2.179,2.449c-0.636,0-1.394-0.24-1.948-0.76l0.379-0.839
			c0.538,0.33,0.979,0.51,1.446,0.51c0.661,0,1.199-0.41,1.199-1.339c0-0.819-0.317-1.239-0.936-1.239
			c-0.433,0-0.696,0.21-0.873,0.42l-0.044,0.52h-0.936L51.24,60.591z"/>
		<path fill="#394045" d="M56.234,66.418c0.502,0,0.723,0.46,0.723,0.959c0,0.81-0.396,1.52-1.226,1.849l-0.178-0.47
			c0.538-0.29,0.732-0.64,0.75-1.069c-0.079,0.03-0.149,0.05-0.229,0.05c-0.31,0-0.494-0.26-0.494-0.609
			C55.581,66.728,55.863,66.418,56.234,66.418z"/>
		<path fill="#394045" d="M59.729,60.491c1.445,0,2.239,1.25,2.239,3.608c0,2.488-0.819,3.718-2.285,3.718
			c-1.454,0-2.229-1.229-2.229-3.648C57.452,61.741,58.271,60.491,59.729,60.491z M59.71,66.698c0.74,0,1.103-0.86,1.103-2.549
			c0-1.639-0.336-2.548-1.103-2.548c-0.759,0-1.103,0.909-1.103,2.568S58.951,66.698,59.71,66.698z"/>
		<path fill="#394045" d="M65.128,60.491c1.446,0,2.24,1.25,2.24,3.608c0,2.488-0.82,3.718-2.285,3.718
			c-1.455,0-2.229-1.229-2.229-3.648C62.854,61.741,63.672,60.491,65.128,60.491z M65.11,66.698c0.739,0,1.102-0.86,1.102-2.549
			c0-1.639-0.335-2.548-1.102-2.548c-0.76,0-1.104,0.909-1.104,2.568S64.352,66.698,65.11,66.698z"/>
		<path fill="#394045" d="M70.527,60.491c1.445,0,2.239,1.25,2.239,3.608c0,2.488-0.819,3.718-2.284,3.718
			c-1.455,0-2.23-1.229-2.23-3.648C68.252,61.741,69.071,60.491,70.527,60.491z M70.51,66.698c0.74,0,1.103-0.86,1.103-2.549
			c0-1.639-0.335-2.548-1.103-2.548c-0.759,0-1.103,0.909-1.103,2.568S69.751,66.698,70.51,66.698z"/>
		<path fill="#394045" d="M75.02,64.579h4.41v0.85h-4.41V64.579z"/>
		<path fill="#394045" d="M83.084,62.21c-0.406,0.25-0.855,0.43-1.385,0.5l-0.15-0.88c0.626-0.18,1.358-0.66,1.799-1.239h0.883
			v6.097h1.146v1h-3.59v-1h1.297V62.21z"/>
		<path fill="#394045" d="M88.227,60.491c1.446,0,2.24,1.25,2.24,3.608c0,2.488-0.819,3.718-2.285,3.718
			c-1.455,0-2.229-1.229-2.229-3.648C85.951,61.741,86.771,60.491,88.227,60.491z M88.209,66.698c0.74,0,1.102-0.86,1.102-2.549
			c0-1.639-0.334-2.548-1.102-2.548c-0.759,0-1.104,0.909-1.104,2.568S87.45,66.698,88.209,66.698z"/>
		<path fill="#394045" d="M91.846,66.418c0.502,0,0.724,0.46,0.724,0.959c0,0.81-0.396,1.52-1.227,1.849l-0.177-0.47
			c0.538-0.29,0.732-0.64,0.75-1.069c-0.079,0.03-0.15,0.05-0.229,0.05c-0.31,0-0.494-0.26-0.494-0.609
			C91.192,66.728,91.475,66.418,91.846,66.418z"/>
		<path fill="#394045" d="M95.339,60.491c1.446,0,2.24,1.25,2.24,3.608c0,2.488-0.82,3.718-2.285,3.718
			c-1.455,0-2.229-1.229-2.229-3.648C93.062,61.741,93.883,60.491,95.339,60.491z M95.321,66.698c0.739,0,1.102-0.86,1.102-2.549
			c0-1.639-0.335-2.548-1.102-2.548c-0.759,0-1.104,0.909-1.104,2.568S94.562,66.698,95.321,66.698z"/>
		<path fill="#394045" d="M100.738,60.491c1.445,0,2.24,1.25,2.24,3.608c0,2.488-0.82,3.718-2.285,3.718
			c-1.455,0-2.23-1.229-2.23-3.648C98.463,61.741,99.282,60.491,100.738,60.491z M100.721,66.698c0.74,0,1.103-0.86,1.103-2.549
			c0-1.639-0.335-2.548-1.103-2.548c-0.759,0-1.103,0.909-1.103,2.568S99.962,66.698,100.721,66.698z"/>
		<path fill="#394045" d="M106.139,60.491c1.446,0,2.24,1.25,2.24,3.608c0,2.488-0.82,3.718-2.285,3.718
			c-1.455,0-2.229-1.229-2.229-3.648C103.863,61.741,104.683,60.491,106.139,60.491z M106.121,66.698c0.74,0,1.102-0.86,1.102-2.549
			c0-1.639-0.335-2.548-1.102-2.548c-0.759,0-1.104,0.909-1.104,2.568S105.362,66.698,106.121,66.698z"/>
	</g>
	<g>
		<path fill="#394045" d="M52.299,87.352c-0.406,0.25-0.855,0.43-1.385,0.5l-0.15-0.881c0.626-0.18,1.358-0.66,1.799-1.238h0.884
			v6.096h1.146v1h-3.59v-1h1.297V87.352z"/>
		<path fill="#394045" d="M57.442,85.631c1.445,0,2.239,1.25,2.239,3.609c0,2.488-0.819,3.717-2.285,3.717
			c-1.454,0-2.229-1.229-2.229-3.646C55.167,86.881,55.986,85.631,57.442,85.631z M57.425,91.838c0.74,0,1.103-0.859,1.103-2.549
			c0-1.639-0.335-2.547-1.103-2.547c-0.759,0-1.103,0.908-1.103,2.568C56.322,90.969,56.666,91.838,57.425,91.838z"/>
		<path fill="#394045" d="M61.061,91.559c0.502,0,0.724,0.461,0.724,0.959c0,0.811-0.396,1.52-1.226,1.85l-0.178-0.471
			c0.538-0.289,0.732-0.641,0.75-1.068c-0.079,0.029-0.149,0.049-0.229,0.049c-0.31,0-0.494-0.26-0.494-0.607
			C60.407,91.87,60.689,91.559,61.061,91.559z"/>
		<path fill="#394045" d="M64.554,85.631c1.446,0,2.24,1.25,2.24,3.609c0,2.488-0.82,3.717-2.285,3.717
			c-1.455,0-2.229-1.229-2.229-3.646C62.278,86.881,63.098,85.631,64.554,85.631z M64.536,91.838c0.74,0,1.102-0.859,1.102-2.549
			c0-1.639-0.335-2.547-1.102-2.547c-0.759,0-1.104,0.908-1.104,2.568C63.433,90.969,63.777,91.838,64.536,91.838z"/>
		<path fill="#394045" d="M69.954,85.631c1.446,0,2.24,1.25,2.24,3.609c0,2.488-0.82,3.717-2.285,3.717
			c-1.455,0-2.23-1.229-2.23-3.646C67.679,86.881,68.498,85.631,69.954,85.631z M69.938,91.838c0.739,0,1.102-0.859,1.102-2.549
			c0-1.639-0.335-2.547-1.102-2.547c-0.76,0-1.104,0.908-1.104,2.568C68.834,90.969,69.178,91.838,69.938,91.838z"/>
		<path fill="#394045" d="M75.354,85.631c1.446,0,2.24,1.25,2.24,3.609c0,2.488-0.819,3.717-2.285,3.717
			c-1.455,0-2.229-1.229-2.229-3.646C73.078,86.881,73.896,85.631,75.354,85.631z M75.336,91.838c0.74,0,1.103-0.859,1.103-2.549
			c0-1.639-0.335-2.547-1.103-2.547c-0.759,0-1.103,0.908-1.103,2.568C74.233,90.969,74.577,91.838,75.336,91.838z"/>
		<path fill="#394045" d="M79.846,89.721h4.41v0.85h-4.41V89.721z"/>
		<path fill="#394045" d="M86.852,85.733h3.255l-0.062,1.119h-2.302l-0.159,1.889c0.238-0.24,0.591-0.439,1.146-0.439
			c1.051,0,1.702,0.771,1.702,2.209c0,1.629-0.97,2.449-2.178,2.449c-0.636,0-1.394-0.24-1.949-0.76l0.38-0.84
			c0.537,0.33,0.979,0.51,1.445,0.51c0.662,0,1.2-0.41,1.2-1.338c0-0.82-0.318-1.24-0.937-1.24c-0.432,0-0.695,0.211-0.873,0.42
			l-0.043,0.521h-0.936L86.852,85.733z"/>
		<path fill="#394045" d="M93.564,85.631c1.446,0,2.24,1.25,2.24,3.609c0,2.488-0.819,3.717-2.285,3.717
			c-1.455,0-2.229-1.229-2.229-3.646C91.29,86.881,92.109,85.631,93.564,85.631z M93.548,91.838c0.74,0,1.103-0.859,1.103-2.549
			c0-1.639-0.335-2.547-1.103-2.547c-0.759,0-1.103,0.908-1.103,2.568C92.445,90.969,92.789,91.838,93.548,91.838z"/>
		<path fill="#394045" d="M97.184,91.559c0.502,0,0.724,0.461,0.724,0.959c0,0.811-0.396,1.52-1.227,1.85l-0.177-0.471
			c0.538-0.289,0.732-0.641,0.75-1.068c-0.079,0.029-0.15,0.049-0.229,0.049c-0.31,0-0.494-0.26-0.494-0.607
			C96.53,91.87,96.812,91.559,97.184,91.559z"/>
		<path fill="#394045" d="M100.677,85.631c1.446,0,2.24,1.25,2.24,3.609c0,2.488-0.82,3.717-2.285,3.717
			c-1.455,0-2.229-1.229-2.229-3.646C98.401,86.881,99.221,85.631,100.677,85.631z M100.659,91.838c0.74,0,1.102-0.859,1.102-2.549
			c0-1.639-0.335-2.547-1.102-2.547c-0.759,0-1.104,0.908-1.104,2.568C99.556,90.969,99.9,91.838,100.659,91.838z"/>
		<path fill="#394045" d="M106.077,85.631c1.446,0,2.24,1.25,2.24,3.609c0,2.488-0.82,3.717-2.285,3.717
			c-1.455,0-2.23-1.229-2.23-3.646C103.802,86.881,104.621,85.631,106.077,85.631z M106.061,91.838c0.739,0,1.102-0.859,1.102-2.549
			c0-1.639-0.335-2.547-1.102-2.547c-0.76,0-1.104,0.908-1.104,2.568C104.957,90.969,105.301,91.838,106.061,91.838z"/>
		<path fill="#394045" d="M111.477,85.631c1.446,0,2.241,1.25,2.241,3.609c0,2.488-0.82,3.717-2.286,3.717
			c-1.455,0-2.229-1.229-2.229-3.646C109.201,86.881,110.021,85.631,111.477,85.631z M111.459,91.838
			c0.74,0,1.102-0.859,1.102-2.549c0-1.639-0.334-2.547-1.102-2.547c-0.759,0-1.104,0.908-1.104,2.568
			C110.355,90.969,110.7,91.838,111.459,91.838z"/>
	</g>
	<g>
		<path fill="#394045" d="M50.878,122.366l-0.317-0.859l3.563-1.658l-3.555-1.67l0.317-0.859l4.665,2.219v0.621L50.878,122.366z"/>
		<path fill="#394045" d="M58.343,115.729h3.254l-0.062,1.121h-2.302l-0.159,1.889c0.238-0.24,0.591-0.439,1.146-0.439
			c1.05,0,1.702,0.77,1.702,2.207c0,1.629-0.97,2.449-2.178,2.449c-0.635,0-1.395-0.24-1.949-0.76l0.379-0.838
			c0.538,0.33,0.979,0.51,1.446,0.51c0.662,0,1.2-0.41,1.2-1.34c0-0.818-0.318-1.238-0.937-1.238c-0.432,0-0.696,0.209-0.873,0.42
			l-0.044,0.52h-0.935L58.343,115.729z"/>
		<path fill="#394045" d="M65.057,115.629c1.446,0,2.24,1.25,2.24,3.607c0,2.488-0.82,3.719-2.285,3.719
			c-1.455,0-2.229-1.229-2.229-3.648C62.781,116.877,63.601,115.629,65.057,115.629z M65.039,121.836
			c0.74,0,1.102-0.859,1.102-2.549c0-1.639-0.335-2.549-1.102-2.549c-0.759,0-1.104,0.91-1.104,2.568S64.28,121.836,65.039,121.836z
			"/>
		<path fill="#394045" d="M68.675,121.557c0.502,0,0.724,0.459,0.724,0.959c0,0.809-0.396,1.52-1.227,1.848l-0.177-0.469
			c0.538-0.291,0.732-0.641,0.75-1.07c-0.079,0.031-0.15,0.051-0.229,0.051c-0.309,0-0.493-0.26-0.493-0.609
			C68.021,121.866,68.304,121.557,68.675,121.557z"/>
		<path fill="#394045" d="M72.169,115.629c1.446,0,2.24,1.25,2.24,3.607c0,2.488-0.82,3.719-2.285,3.719
			c-1.455,0-2.23-1.229-2.23-3.648C69.895,116.877,70.713,115.629,72.169,115.629z M72.151,121.836c0.739,0,1.102-0.859,1.102-2.549
			c0-1.639-0.335-2.549-1.102-2.549c-0.76,0-1.104,0.91-1.104,2.568S71.393,121.836,72.151,121.836z"/>
		<path fill="#394045" d="M77.568,115.629c1.445,0,2.239,1.25,2.239,3.607c0,2.488-0.819,3.719-2.284,3.719
			c-1.455,0-2.23-1.229-2.23-3.648C75.293,116.877,76.112,115.629,77.568,115.629z M77.551,121.836c0.74,0,1.103-0.859,1.103-2.549
			c0-1.639-0.335-2.549-1.103-2.549c-0.759,0-1.103,0.91-1.103,2.568S76.792,121.836,77.551,121.836z"/>
		<path fill="#394045" d="M82.969,115.629c1.446,0,2.24,1.25,2.24,3.607c0,2.488-0.82,3.719-2.285,3.719
			c-1.455,0-2.229-1.229-2.229-3.648C80.693,116.877,81.513,115.629,82.969,115.629z M82.951,121.836
			c0.74,0,1.102-0.859,1.102-2.549c0-1.639-0.335-2.549-1.102-2.549c-0.759,0-1.104,0.91-1.104,2.568S82.192,121.836,82.951,121.836
			z"/>
	</g>
	<path fill="#024159" d="M36.652,119.936c0,5.35-4.336,9.684-9.685,9.684c-5.345,0-9.685-4.334-9.685-9.684
		c0-5.348,4.34-9.686,9.685-9.686C32.316,110.25,36.652,114.588,36.652,119.936z"/>
</g>
</svg>
