<?xml version="1.0" encoding="utf-8"?>
<!-- Generator: Adobe Illustrator 16.0.0, SVG Export Plug-In . SVG Version: 6.00 Build 0)  -->
<!DOCTYPE svg PUBLIC "-//W3C//DTD SVG 1.1//EN" "http://www.w3.org/Graphics/SVG/1.1/DTD/svg11.dtd">
<svg version="1.1" id="Layer_1" xmlns="http://www.w3.org/2000/svg" xmlns:xlink="http://www.w3.org/1999/xlink" x="0px" y="0px"
	 width="253.423px" height="38.546px" viewBox="0 0 253.423 38.546" enable-background="new 0 0 253.423 38.546"
	 xml:space="preserve">
<g opacity="0.3">
	<defs>
		<rect id="SVGID_1_" opacity="0.3" width="253.423" height="38.546"/>
	</defs>
	<clipPath id="SVGID_2_">
		<use xlink:href="#SVGID_1_"  overflow="visible"/>
	</clipPath>
	<polyline clip-path="url(#SVGID_2_)" fill="none" stroke="#FFFFFF" stroke-width="1.0302" stroke-miterlimit="10" points="
		-87.729,-286.686 360.028,161.072 360.028,161.072 -87.729,-286.686 	"/>
	<polyline clip-path="url(#SVGID_2_)" fill="none" stroke="#FFFFFF" stroke-width="1.0302" stroke-miterlimit="10" points="
		-97.583,-286.686 350.176,161.072 350.176,161.072 -97.583,-286.686 	"/>
	<polyline clip-path="url(#SVGID_2_)" fill="none" stroke="#FFFFFF" stroke-width="1.0302" stroke-miterlimit="10" points="
		-107.437,-286.686 340.322,161.072 340.322,161.072 -107.437,-286.686 	"/>
	<polyline clip-path="url(#SVGID_2_)" fill="none" stroke="#FFFFFF" stroke-width="1.0302" stroke-miterlimit="10" points="
		-117.29,-286.686 330.469,161.072 330.469,161.072 -117.29,-286.686 	"/>
	<polyline clip-path="url(#SVGID_2_)" fill="none" stroke="#FFFFFF" stroke-width="1.0302" stroke-miterlimit="10" points="
		-127.144,-286.686 320.616,161.072 320.616,161.072 -127.144,-286.686 	"/>
	<polyline clip-path="url(#SVGID_2_)" fill="none" stroke="#FFFFFF" stroke-width="1.0302" stroke-miterlimit="10" points="
		-136.995,-286.686 310.763,161.072 310.763,161.072 -136.995,-286.686 	"/>
	<polyline clip-path="url(#SVGID_2_)" fill="none" stroke="#FFFFFF" stroke-width="1.0302" stroke-miterlimit="10" points="
		-146.849,-286.686 300.91,161.072 300.91,161.072 -146.849,-286.686 	"/>
	<polyline clip-path="url(#SVGID_2_)" fill="none" stroke="#FFFFFF" stroke-width="1.0302" stroke-miterlimit="10" points="
		-156.702,-286.686 291.057,161.072 291.057,161.072 -156.702,-286.686 	"/>
	<polyline clip-path="url(#SVGID_2_)" fill="none" stroke="#FFFFFF" stroke-width="1.0302" stroke-miterlimit="10" points="
		-166.554,-286.686 281.204,161.072 281.204,161.072 -166.554,-286.686 	"/>
	<polyline clip-path="url(#SVGID_2_)" fill="none" stroke="#FFFFFF" stroke-width="1.0302" stroke-miterlimit="10" points="
		-176.409,-286.686 271.351,161.072 271.351,161.072 -176.409,-286.686 	"/>
	<polyline clip-path="url(#SVGID_2_)" fill="none" stroke="#FFFFFF" stroke-width="1.0302" stroke-miterlimit="10" points="
		-186.261,-286.686 261.497,161.072 261.497,161.072 -186.261,-286.686 	"/>
	<polyline clip-path="url(#SVGID_2_)" fill="none" stroke="#FFFFFF" stroke-width="1.0302" stroke-miterlimit="10" points="
		-196.114,-286.686 251.645,161.072 251.645,161.072 -196.114,-286.686 	"/>
	<polyline clip-path="url(#SVGID_2_)" fill="none" stroke="#FFFFFF" stroke-width="1.0302" stroke-miterlimit="10" points="
		-205.969,-286.686 241.791,161.072 241.791,161.072 -205.969,-286.686 	"/>
	<polyline clip-path="url(#SVGID_2_)" fill="none" stroke="#FFFFFF" stroke-width="1.0302" stroke-miterlimit="10" points="
		-215.819,-286.686 231.938,161.072 231.938,161.072 -215.819,-286.686 	"/>
	<polyline clip-path="url(#SVGID_2_)" fill="none" stroke="#FFFFFF" stroke-width="1.0302" stroke-miterlimit="10" points="
		-225.675,-286.686 222.085,161.072 222.085,161.072 -225.675,-286.686 	"/>
	<polyline clip-path="url(#SVGID_2_)" fill="none" stroke="#FFFFFF" stroke-width="1.0302" stroke-miterlimit="10" points="
		-235.526,-286.686 212.232,161.072 212.232,161.072 -235.526,-286.686 	"/>
	<polyline clip-path="url(#SVGID_2_)" fill="none" stroke="#FFFFFF" stroke-width="1.0302" stroke-miterlimit="10" points="
		-245.38,-286.686 202.379,161.072 202.379,161.072 -245.38,-286.686 	"/>
	<polyline clip-path="url(#SVGID_2_)" fill="none" stroke="#FFFFFF" stroke-width="1.0302" stroke-miterlimit="10" points="
		-255.233,-286.686 192.526,161.072 192.526,161.072 -255.233,-286.686 	"/>
	<polyline clip-path="url(#SVGID_2_)" fill="none" stroke="#FFFFFF" stroke-width="1.0302" stroke-miterlimit="10" points="
		-265.084,-286.686 182.673,161.072 182.673,161.072 -265.084,-286.686 	"/>
	<polyline clip-path="url(#SVGID_2_)" fill="none" stroke="#FFFFFF" stroke-width="1.0302" stroke-miterlimit="10" points="
		-274.939,-286.686 172.819,161.072 172.819,161.072 -274.939,-286.686 	"/>
	<polyline clip-path="url(#SVGID_2_)" fill="none" stroke="#FFFFFF" stroke-width="1.0302" stroke-miterlimit="10" points="
		-284.791,-286.686 162.967,161.072 162.967,161.072 -284.791,-286.686 	"/>
	<polyline clip-path="url(#SVGID_2_)" fill="none" stroke="#FFFFFF" stroke-width="1.0302" stroke-miterlimit="10" points="
		-294.645,-286.686 153.113,161.072 153.113,161.072 -294.645,-286.686 	"/>
	<polyline clip-path="url(#SVGID_2_)" fill="none" stroke="#FFFFFF" stroke-width="1.0302" stroke-miterlimit="10" points="
		-304.498,-286.686 143.261,161.072 143.261,161.072 -304.498,-286.686 	"/>
	<polyline clip-path="url(#SVGID_2_)" fill="none" stroke="#FFFFFF" stroke-width="1.0302" stroke-miterlimit="10" points="
		-314.351,-286.686 133.407,161.072 133.407,161.072 -314.351,-286.686 	"/>
	<polyline clip-path="url(#SVGID_2_)" fill="none" stroke="#FFFFFF" stroke-width="1.0302" stroke-miterlimit="10" points="
		-324.203,-286.686 123.556,161.072 123.556,161.072 -324.203,-286.686 	"/>
	<polyline clip-path="url(#SVGID_2_)" fill="none" stroke="#FFFFFF" stroke-width="1.0302" stroke-miterlimit="10" points="
		-334.058,-286.686 113.701,161.072 113.701,161.072 -334.058,-286.686 	"/>
	<polyline clip-path="url(#SVGID_2_)" fill="none" stroke="#FFFFFF" stroke-width="1.0302" stroke-miterlimit="10" points="
		-343.909,-286.686 103.849,161.072 103.849,161.072 -343.909,-286.686 	"/>
	<polyline clip-path="url(#SVGID_2_)" fill="none" stroke="#FFFFFF" stroke-width="1.0302" stroke-miterlimit="10" points="
		-353.765,-286.686 93.995,161.072 93.995,161.072 -353.765,-286.686 	"/>
	<polyline clip-path="url(#SVGID_2_)" fill="none" stroke="#FFFFFF" stroke-width="1.0302" stroke-miterlimit="10" points="
		-363.615,-286.686 84.143,161.072 84.143,161.072 -363.615,-286.686 	"/>
	<polyline clip-path="url(#SVGID_2_)" fill="none" stroke="#FFFFFF" stroke-width="1.0302" stroke-miterlimit="10" points="
		-373.471,-286.686 74.29,161.072 74.29,161.072 -373.471,-286.686 	"/>
	<polyline clip-path="url(#SVGID_2_)" fill="none" stroke="#FFFFFF" stroke-width="1.0302" stroke-miterlimit="10" points="
		-383.322,-286.686 64.437,161.072 64.437,161.072 -383.322,-286.686 	"/>
	<polyline clip-path="url(#SVGID_2_)" fill="none" stroke="#FFFFFF" stroke-width="1.0302" stroke-miterlimit="10" points="
		-393.174,-286.686 54.584,161.072 54.584,161.072 -393.174,-286.686 	"/>
	<polyline clip-path="url(#SVGID_2_)" fill="none" stroke="#FFFFFF" stroke-width="1.0302" stroke-miterlimit="10" points="
		-403.029,-286.686 44.73,161.072 44.73,161.072 -403.029,-286.686 	"/>
	<polyline clip-path="url(#SVGID_2_)" fill="none" stroke="#FFFFFF" stroke-width="1.0302" stroke-miterlimit="10" points="
		-412.88,-286.686 34.877,161.072 34.877,161.072 -412.88,-286.686 	"/>
	<polyline clip-path="url(#SVGID_2_)" fill="none" stroke="#FFFFFF" stroke-width="1.0302" stroke-miterlimit="10" points="
		-422.733,-286.686 25.024,161.072 25.024,161.072 -422.733,-286.686 	"/>
	<polyline clip-path="url(#SVGID_2_)" fill="none" stroke="#FFFFFF" stroke-width="1.0302" stroke-miterlimit="10" points="
		-432.588,-286.686 15.17,161.072 15.17,161.072 -432.588,-286.686 	"/>
	<polyline clip-path="url(#SVGID_2_)" fill="none" stroke="#FFFFFF" stroke-width="1.0302" stroke-miterlimit="10" points="
		-442.44,-286.686 5.317,161.072 5.317,161.072 -442.44,-286.686 	"/>
	<polyline clip-path="url(#SVGID_2_)" fill="none" stroke="#FFFFFF" stroke-width="1.0302" stroke-miterlimit="10" points="
		-452.295,-286.686 -4.536,161.072 -4.536,161.072 -452.295,-286.686 	"/>
	<polyline clip-path="url(#SVGID_2_)" fill="none" stroke="#FFFFFF" stroke-width="1.0302" stroke-miterlimit="10" points="
		-462.146,-286.686 -14.388,161.072 -14.388,161.072 -462.146,-286.686 	"/>
	<polyline clip-path="url(#SVGID_2_)" fill="none" stroke="#FFFFFF" stroke-width="1.0302" stroke-miterlimit="10" points="
		-471.998,-286.686 -24.242,161.072 -24.242,161.072 -471.998,-286.686 	"/>
	<polyline clip-path="url(#SVGID_2_)" fill="none" stroke="#FFFFFF" stroke-width="1.0302" stroke-miterlimit="10" points="
		-481.854,-286.686 -34.094,161.072 -34.094,161.072 -481.854,-286.686 	"/>
	<polyline clip-path="url(#SVGID_2_)" fill="none" stroke="#FFFFFF" stroke-width="1.0302" stroke-miterlimit="10" points="
		-491.705,-286.686 -43.948,161.072 -43.948,161.072 -491.705,-286.686 	"/>
	<polyline clip-path="url(#SVGID_2_)" fill="none" stroke="#FFFFFF" stroke-width="1.0302" stroke-miterlimit="10" points="
		-501.561,-286.686 -53.8,161.072 -53.8,161.072 -501.561,-286.686 	"/>
	<polyline clip-path="url(#SVGID_2_)" fill="none" stroke="#FFFFFF" stroke-width="1.0302" stroke-miterlimit="10" points="
		-511.411,-286.686 -63.653,161.072 -63.653,161.072 -511.411,-286.686 	"/>
	<polyline clip-path="url(#SVGID_2_)" fill="none" stroke="#FFFFFF" stroke-width="1.0302" stroke-miterlimit="10" points="
		-521.263,-286.686 -73.507,161.072 -73.507,161.072 -521.263,-286.686 	"/>
	<polyline clip-path="url(#SVGID_2_)" fill="none" stroke="#FFFFFF" stroke-width="1.0302" stroke-miterlimit="10" points="
		-531.119,-286.686 -83.358,161.072 -83.358,161.072 -531.119,-286.686 	"/>
	<polyline clip-path="url(#SVGID_2_)" fill="none" stroke="#FFFFFF" stroke-width="1.0302" stroke-miterlimit="10" points="
		-540.971,-286.686 -93.213,161.072 -93.213,161.072 -540.971,-286.686 	"/>
	<polyline clip-path="url(#SVGID_2_)" fill="none" stroke="#FFFFFF" stroke-width="1.0302" stroke-miterlimit="10" points="
		-550.826,-286.686 -103.065,161.072 -103.065,161.072 -550.826,-286.686 	"/>
	<polyline clip-path="url(#SVGID_2_)" fill="none" stroke="#FFFFFF" stroke-width="1.0302" stroke-miterlimit="10" points="
		-560.677,-286.686 -112.918,161.072 -112.918,161.072 -560.677,-286.686 	"/>
	<polyline clip-path="url(#SVGID_2_)" fill="none" stroke="#FFFFFF" stroke-width="1.0302" stroke-miterlimit="10" points="
		-570.529,-286.686 -122.771,161.072 -122.771,161.072 -570.529,-286.686 	"/>
	<polyline clip-path="url(#SVGID_2_)" fill="none" stroke="#FFFFFF" stroke-width="1.0302" stroke-miterlimit="10" points="
		-580.384,-286.686 -132.624,161.072 -132.624,161.072 -580.384,-286.686 	"/>
	<polyline clip-path="url(#SVGID_2_)" fill="none" stroke="#FFFFFF" stroke-width="1.0302" stroke-miterlimit="10" points="
		-590.236,-286.686 -142.479,161.072 -142.479,161.072 -590.236,-286.686 	"/>
	<polyline clip-path="url(#SVGID_2_)" fill="none" stroke="#FFFFFF" stroke-width="1.0302" stroke-miterlimit="10" points="
		-600.091,-286.686 -152.332,161.072 -152.332,161.072 -600.091,-286.686 	"/>
	<polyline clip-path="url(#SVGID_2_)" fill="none" stroke="#FFFFFF" stroke-width="1.0302" stroke-miterlimit="10" points="
		-609.942,-286.686 -162.184,161.072 -162.184,161.072 -609.942,-286.686 	"/>
	<polyline clip-path="url(#SVGID_2_)" fill="none" stroke="#FFFFFF" stroke-width="1.0302" stroke-miterlimit="10" points="
		-619.795,-286.686 -172.037,161.072 -172.037,161.072 -619.795,-286.686 	"/>
	<polyline clip-path="url(#SVGID_2_)" fill="none" stroke="#FFFFFF" stroke-width="1.0302" stroke-miterlimit="10" points="
		-629.65,-286.686 -181.89,161.072 -181.89,161.072 -629.65,-286.686 	"/>
	<polyline clip-path="url(#SVGID_2_)" fill="none" stroke="#FFFFFF" stroke-width="1.0302" stroke-miterlimit="10" points="
		-639.502,-286.686 -191.741,161.072 -191.741,161.072 -639.502,-286.686 	"/>
	<polyline clip-path="url(#SVGID_2_)" fill="none" stroke="#FFFFFF" stroke-width="1.0302" stroke-miterlimit="10" points="
		-649.353,-286.686 -201.598,161.072 -201.598,161.072 -649.353,-286.686 	"/>
	<polyline clip-path="url(#SVGID_2_)" fill="none" stroke="#FFFFFF" stroke-width="1.0302" stroke-miterlimit="10" points="
		-659.208,-286.686 -211.449,161.072 -211.449,161.072 -659.208,-286.686 	"/>
	<polyline clip-path="url(#SVGID_2_)" fill="none" stroke="#FFFFFF" stroke-width="1.0302" stroke-miterlimit="10" points="
		-669.06,-286.686 -221.302,161.072 -221.302,161.072 -669.06,-286.686 	"/>
	<polyline clip-path="url(#SVGID_2_)" fill="none" stroke="#FFFFFF" stroke-width="1.0302" stroke-miterlimit="10" points="
		-678.915,-286.686 -231.155,161.072 -231.155,161.072 -678.915,-286.686 	"/>
	<polyline clip-path="url(#SVGID_2_)" fill="none" stroke="#FFFFFF" stroke-width="1.0302" stroke-miterlimit="10" points="
		-688.767,-286.686 -241.007,161.072 -241.007,161.072 -688.767,-286.686 	"/>
	<polyline clip-path="url(#SVGID_2_)" fill="none" stroke="#FFFFFF" stroke-width="1.0302" stroke-miterlimit="10" points="
		-698.618,-286.686 -250.862,161.072 -250.862,161.072 -698.618,-286.686 	"/>
	<polyline clip-path="url(#SVGID_2_)" fill="none" stroke="#FFFFFF" stroke-width="1.0302" stroke-miterlimit="10" points="
		-708.474,-286.686 -260.714,161.072 -260.714,161.072 -708.474,-286.686 	"/>
	<polyline clip-path="url(#SVGID_2_)" fill="none" stroke="#FFFFFF" stroke-width="1.0302" stroke-miterlimit="10" points="
		-718.325,-286.686 -270.568,161.072 -270.568,161.072 -718.325,-286.686 	"/>
	<polyline clip-path="url(#SVGID_2_)" fill="none" stroke="#FFFFFF" stroke-width="1.0302" stroke-miterlimit="10" points="
		-728.181,-286.686 -280.421,161.072 -280.421,161.072 -728.181,-286.686 	"/>
	<polyline clip-path="url(#SVGID_2_)" fill="none" stroke="#FFFFFF" stroke-width="1.0302" stroke-miterlimit="10" points="
		-738.033,-286.686 -290.272,161.072 -290.272,161.072 -738.033,-286.686 	"/>
	<polyline clip-path="url(#SVGID_2_)" fill="none" stroke="#FFFFFF" stroke-width="1.0302" stroke-miterlimit="10" points="
		-747.884,-286.686 -300.129,161.072 -300.129,161.072 -747.884,-286.686 	"/>
	<polyline clip-path="url(#SVGID_2_)" fill="none" stroke="#FFFFFF" stroke-width="1.0302" stroke-miterlimit="10" points="
		-757.739,-286.686 -309.98,161.072 -309.98,161.072 -757.739,-286.686 	"/>
	<polyline clip-path="url(#SVGID_2_)" fill="none" stroke="#FFFFFF" stroke-width="1.0302" stroke-miterlimit="10" points="
		-767.591,-286.686 -319.833,161.072 -319.833,161.072 -767.591,-286.686 	"/>
	<polyline clip-path="url(#SVGID_2_)" fill="none" stroke="#FFFFFF" stroke-width="1.0302" stroke-miterlimit="10" points="
		-777.446,-286.686 -329.687,161.072 -329.687,161.072 -777.446,-286.686 	"/>
	<polyline clip-path="url(#SVGID_2_)" fill="none" stroke="#FFFFFF" stroke-width="1.0302" stroke-miterlimit="10" points="
		-787.298,-286.686 -339.538,161.072 -339.538,161.072 -787.298,-286.686 	"/>
	<polyline clip-path="url(#SVGID_2_)" fill="none" stroke="#FFFFFF" stroke-width="1.0302" stroke-miterlimit="10" points="
		-797.149,-286.686 -349.394,161.072 -349.394,161.072 -797.149,-286.686 	"/>
	<polyline clip-path="url(#SVGID_2_)" fill="none" stroke="#FFFFFF" stroke-width="1.0302" stroke-miterlimit="10" points="
		-807.005,-286.686 -359.245,161.072 -359.245,161.072 -807.005,-286.686 	"/>
	<polyline clip-path="url(#SVGID_2_)" fill="none" stroke="#FFFFFF" stroke-width="1.0302" stroke-miterlimit="10" points="
		-816.856,-286.686 -369.096,161.072 -369.096,161.072 -816.856,-286.686 	"/>
	<polyline clip-path="url(#SVGID_2_)" fill="none" stroke="#FFFFFF" stroke-width="1.0302" stroke-miterlimit="10" points="
		-826.712,-286.686 -378.952,161.072 -378.952,161.072 -826.712,-286.686 	"/>
	<polyline clip-path="url(#SVGID_2_)" fill="none" stroke="#FFFFFF" stroke-width="1.0302" stroke-miterlimit="10" points="
		-836.562,-286.686 -388.803,161.072 -388.803,161.072 -836.562,-286.686 	"/>
	<polyline clip-path="url(#SVGID_2_)" fill="none" stroke="#FFFFFF" stroke-width="1.0302" stroke-miterlimit="10" points="
		-846.415,-286.686 -398.658,161.072 -398.658,161.072 -846.415,-286.686 	"/>
	<polyline clip-path="url(#SVGID_2_)" fill="none" stroke="#FFFFFF" stroke-width="1.0302" stroke-miterlimit="10" points="
		-856.271,-286.686 -408.51,161.072 -408.51,161.072 -856.271,-286.686 	"/>
	<polyline clip-path="url(#SVGID_2_)" fill="none" stroke="#FFFFFF" stroke-width="1.0302" stroke-miterlimit="10" points="
		-866.122,-286.686 -418.362,161.072 -418.362,161.072 -866.122,-286.686 	"/>
	<polyline clip-path="url(#SVGID_2_)" fill="none" stroke="#FFFFFF" stroke-width="1.0302" stroke-miterlimit="10" points="
		-875.978,-286.686 -428.217,161.072 -428.217,161.072 -875.978,-286.686 	"/>
	<polyline clip-path="url(#SVGID_2_)" fill="none" stroke="#FFFFFF" stroke-width="1.0302" stroke-miterlimit="10" points="
		-885.829,-286.686 -438.069,161.072 -438.069,161.072 -885.829,-286.686 	"/>
</g>
</svg>
